<?xml version="1.0" encoding="utf-8"?>
<!-- Generator: Adobe Illustrator 28.2.0, SVG Export Plug-In . SVG Version: 6.00 Build 0)  -->
<svg version="1.1" id="Layer_1" xmlns="http://www.w3.org/2000/svg" xmlns:xlink="http://www.w3.org/1999/xlink" x="0px" y="0px"
	 viewBox="0 0 800 352" style="enable-background:new 0 0 800 352;" xml:space="preserve">
<style type="text/css">
	.st0{fill:#72C6FA;}
	.st1{fill:#FFFFFF;}
	.st2{opacity:0.5;fill:#29C3FF;}
</style>
<g>
	<path class="st0" d="M777.5,180.7c-7.1-53.1-40.9-87.3-112.1-93.8c-14.6-1.4-56.9-1.9-67.5-1.3c-21.1-170.8-221.8-0.9-221.8-0.9
		c-40.9-38.9-98.7-1.4-98.7-1.4c-60.8-42.1-109.9-14-100.6,23.4C91,63.7,31.9,112,23.1,181.1c-1.3,9.9-1.5,20.3-0.6,30.9
		c0,161.4,159.1,100.6,159.1,100.6c205.9,60.8,409.4,0,409.4,0s42,17.7,88.9,11.7c91.2-11.7,95.9-70.2,98.2-100.6
		c0.1-1.6,0.3-3.3,0.4-4.9C779.4,205.2,779.1,192.5,777.5,180.7z M478.7,57.5c1.8,0,3.6,0.1,5.3,0.4c-0.4-1.2-0.6-2.5-0.6-3.9
		c0-9.7,11.5-17.5,25.7-17.5s25.7,7.9,25.7,17.5c0,1.3-0.2,2.6-0.6,3.9c1.7-0.2,3.5-0.4,5.3-0.4c14.2,0,25.7,7.9,25.7,17.5
		s-11.5,17.5-25.7,17.5c-5.7,0-10.9-1.3-15.2-3.4c-4.3,2.2-9.5,3.4-15.2,3.4s-10.9-1.3-15.2-3.4c-4.3,2.2-9.5,3.4-15.2,3.4
		c-14.2,0-25.7-7.9-25.7-17.5S464.4,57.5,478.7,57.5z"/>
	<path class="st1" d="M565.2,75.1c0,9.7-11.5,17.5-25.7,17.5c-5.7,0-10.9-1.3-15.2-3.4c-4.3,2.2-9.5,3.4-15.2,3.4
		s-10.9-1.3-15.2-3.4c-4.3,2.2-9.5,3.4-15.2,3.4c-14.2,0-25.7-7.9-25.7-17.5s11.5-17.5,25.7-17.5c1.8,0,3.6,0.1,5.3,0.4
		c-0.4-1.2-0.6-2.5-0.6-3.9c0-9.7,11.5-17.5,25.7-17.5s25.7,7.9,25.7,17.5c0,1.3-0.2,2.6-0.6,3.9c1.7-0.2,3.5-0.4,5.3-0.4
		C553.7,57.5,565.2,65.4,565.2,75.1z"/>
	<path class="st2" d="M778.5,218.7c-0.1,1.6-0.3,3.3-0.4,4.9c-2.3,30.4-7,88.9-98.2,100.6c-46.9,6-88.9-11.7-88.9-11.7
		s-203.5,60.8-409.4,0c0,0-159.1,60.8-159.1-100.6c-0.9-10.6-0.7-20.9,0.6-30.9c2.2,0.6,7.3,2.1,15.3,4.1c9.7,2.4,23.7,5.7,41.6,9.2
		c31.7,6.3,75.7,13.6,130.3,19.1c12.7,1.3,26,2.5,39.8,3.5c9.1,0.7,18.5,1.3,28.1,1.9c13,0.8,26.5,1.4,40.4,1.9
		c17.2,0.6,35,1,53.4,1.1c13.5,0.1,27.2,0,41.3-0.2c8.5-0.1,17.2-0.4,25.9-0.6c13-0.4,26.3-0.9,39.8-1.6c16.1-0.8,32.5-1.9,49.2-3.2
		c13.1-1,26.4-2.2,39.8-3.5c14.7-1.5,29.5-3.1,44.7-4.9c13.5-1.6,27.2-3.4,41-5.4c21.4-3,43.2-6.5,65.4-10.5
		c13.8-2.4,27.6-5,41.7-7.8c5.5-1.1,11-2.2,16.6-3.4C779.1,192.5,779.4,205.2,778.5,218.7z"/>
	<g>
		<path class="st1" d="M316,116.6c-0.5-0.3-0.5-0.9-0.1-1.3c3.1-2.8,4.6-5.8,4.6-8.9c0-4.6-1.3-7.9-3.8-10.1c-1.1-1-3.1-1.9-5.7-2.6
			c-2.7-0.7-7-1.1-12.9-1.1h-16.3c-0.4,0-0.7,0.3-0.8,0.7l-0.6,5.1c0,0.2,0,0.5,0.2,0.6c0.7,0.8,1.8,1.5,3.4,2.1
			c0.3,0.1,0.5,0.4,0.5,0.7v33.2c0,0.3-0.2,0.6-0.5,0.7c-1.6,0.7-2.7,1.3-3.4,2c-0.2,0.2-0.2,0.4-0.2,0.7l0.6,5.1
			c0,0.4,0.4,0.7,0.8,0.7h20.7c6.5-0.2,11.4-1.6,14.7-4c3.3-2.4,4.9-6.2,4.9-11.2C322.1,123.2,320.1,119.1,316,116.6z M295.3,101.6
			c0-0.4,0.4-0.8,0.8-0.8h3.1c2.3,0,4.1,0.1,5.4,0.3c1.2,0.2,2.3,0.8,3.3,1.7c0.9,0.9,1.4,2.4,1.4,4.2c0,1.9-0.7,3.5-2,4.8
			c-1.4,1.3-3.3,1.9-5.8,1.9h-5.4c-0.4,0-0.8-0.4-0.8-0.8V101.6z M308.2,134.7c-1.8,1-4.4,1.5-7.7,1.5h-4.4c-0.4,0-0.8-0.4-0.8-0.8
			v-12.7c0-0.4,0.4-0.8,0.8-0.8h5.9c3.2,0,5.4,0.6,6.8,1.7c1.4,1.1,2.1,3,2.1,5.6C310.8,131.9,309.9,133.7,308.2,134.7z"/>
		<path class="st1" d="M366.8,136.4c-0.8-0.4-1.8-0.7-3-0.9c-0.4-0.1-0.7-0.4-0.7-0.8v-27.9c0-0.4-0.3-0.8-0.7-0.8
			c-1.5-0.1-3.3-0.2-5.4-0.2c-2.2,0-4.7,0.3-7.2,0.9c-0.3,0.1-0.6,0.4-0.7,0.7l-0.6,4.8c0,0.3,0,0.5,0.2,0.7c0.8,0.8,2,1.5,3.3,2.1
			c0.3,0.1,0.5,0.4,0.5,0.7v18.2c0,0.3-0.1,0.5-0.4,0.7c-2,1.4-4.2,2.2-6.5,2.2c-2.5,0-4.1-0.4-4.9-1.3c-0.8-0.9-1.2-2.7-1.2-5.4
			v-23.2c0-0.4-0.3-0.8-0.7-0.8c-1.5-0.1-3.3-0.2-5.4-0.2c-2.2,0-4.7,0.3-7.2,0.9c-0.4,0.1-0.6,0.4-0.7,0.7l-0.6,4.8
			c0,0.3,0,0.5,0.2,0.7c0.9,0.8,2,1.5,3.3,2.1c0.3,0.1,0.5,0.4,0.5,0.7v16.8c0,4.4,0.9,7.6,2.8,9.5c1.9,1.9,5.1,2.9,9.8,2.9
			c4.2,0,8-1,11.2-3.1c0.4-0.3,1.1-0.1,1.2,0.4c0.3,1,0.8,1.8,1.6,2.5c0.2,0.1,0.4,0.2,0.6,0.2c4.2,0,7.7-0.7,10.5-2.2
			c0.3-0.1,0.5-0.4,0.5-0.7v-4.9C367.2,136.8,367.1,136.5,366.8,136.4z"/>
		<path class="st1" d="M391.5,121.6l-5.9-1.6c-3.5-0.9-5.2-2.3-5.2-4.1c0-1.9,1.7-2.9,5-2.9c1.2,0,2.5,0.1,3.7,0.4
			c0.3,0.1,0.5,0.3,0.6,0.6c0.2,0.9,0.5,1.8,0.9,2.7c0.1,0.3,0.4,0.4,0.7,0.4h5.1c0.3,0,0.6-0.2,0.7-0.5c1.1-2.3,1.5-4.9,1.4-7.6
			c-0.2-0.3-0.4-0.5-0.5-0.8c-3.3-1.3-7.3-2-12-2c-4.9,0-8.7,1.1-11.4,3.2c-2.6,2.1-4,4.8-4,8.1c0,3.3,0.9,5.8,2.5,7.4
			c1.7,1.7,4.1,2.9,7.1,3.8l5.9,1.7c1.8,0.5,2.9,1,3.5,1.5c0.6,0.5,0.9,1.2,0.9,2c0,2.5-2.2,3.8-6.6,3.8c-1.6,0-2.9-0.1-3.8-0.3
			c-0.3-0.1-0.5-0.3-0.6-0.6c-0.2-1-0.5-1.9-1-2.8c-0.1-0.3-0.4-0.5-0.7-0.5h-5.2c-0.3,0-0.6,0.2-0.7,0.5c-0.8,1.9-1.3,4-1.4,6.2
			c0.8,1.1,1.5,2.2,2.3,3.3c2.9,1,6.7,1.5,11.2,1.5c5.7,0,9.9-1.2,12.5-3.6c2.6-2.4,4-5.5,4-9.2
			C400.7,126.7,397.6,123.2,391.5,121.6z"/>
		<path class="st1" d="M413.6,90.3c-4.2,0-6.3,1.9-6.3,5.7c0,3.8,2.1,5.7,6.3,5.7s6.3-1.9,6.3-5.7C419.9,92.2,417.8,90.3,413.6,90.3
			z M422.8,138.3c-0.7-0.7-1.9-1.4-3.4-2.1c-0.3-0.1-0.5-0.4-0.5-0.7v-28.7c0-0.4-0.3-0.8-0.7-0.8c-1.5-0.1-3.3-0.2-5.4-0.2
			c-2.2,0-4.6,0.3-7.2,0.9c-0.3,0.1-0.6,0.4-0.6,0.7l-0.6,4.8c0,0.3,0,0.5,0.2,0.7c0.9,0.8,2,1.5,3.3,2.1c0.3,0.1,0.5,0.4,0.5,0.7
			v19.8c0,0.3-0.2,0.6-0.5,0.7c-1.6,0.6-2.7,1.3-3.4,2.1c-0.1,0.2-0.2,0.4-0.2,0.7l0.6,4.7c0,0.4,0.4,0.7,0.8,0.7h15.8
			c0.4,0,0.7-0.3,0.8-0.7l0.6-4.7C423.1,138.7,423,138.5,422.8,138.3z"/>
		<path class="st1" d="M467.9,138.3c-0.7-0.7-1.9-1.4-3.4-2.1c-0.3-0.1-0.5-0.4-0.5-0.7v-13.9c0-5.7-1-9.6-3-11.9
			c-2-2.3-5.4-3.5-10.3-3.5c-1.9,0-3.9,0.4-6,1c-2.1,0.7-3.7,1.5-5,2.6v-3c0-0.4-0.3-0.8-0.7-0.8c-1.3-0.1-2.9-0.1-4.7-0.1
			c-2.1,0-4.3,0.3-6.9,0.8c-0.3,0.1-0.6,0.4-0.7,0.7l-0.6,4.8c0,0.3,0,0.5,0.2,0.7c0.9,0.8,2,1.5,3.3,2.1c0.3,0.1,0.5,0.4,0.5,0.7
			v19.8c0,0.3-0.2,0.6-0.5,0.7c-1.6,0.6-2.7,1.3-3.4,2.1c-0.2,0.2-0.2,0.4-0.2,0.7l0.6,4.7c0.1,0.4,0.4,0.7,0.8,0.7h15.8
			c0.4,0,0.7-0.3,0.8-0.7l0.6-4.7c0-0.3,0-0.5-0.2-0.7c-0.7-0.7-1.8-1.4-3.3-2.1c-0.3-0.1-0.5-0.4-0.5-0.7v-18.3
			c0-0.3,0.1-0.5,0.4-0.7c2.2-1.4,4.3-2.2,6.4-2.2c2.2,0,3.8,0.5,4.7,1.4c0.9,0.9,1.3,2.7,1.3,5.5v14.3c0,0.3-0.2,0.6-0.5,0.7
			c-1.6,0.6-2.7,1.3-3.4,2.1c-0.2,0.2-0.2,0.4-0.2,0.7l0.6,4.7c0,0.4,0.4,0.7,0.8,0.7h15.9c0.4,0,0.7-0.3,0.8-0.7l0.6-4.7
			C468.1,138.7,468,138.5,467.9,138.3z"/>
		<path class="st1" d="M499,134.8c-0.7,0.4-1.8,0.8-3.4,1.2c-1.6,0.4-3.2,0.6-4.9,0.6c-3.1,0-5.4-0.7-6.8-2
			c-1.3-1.2-2.1-3.1-2.4-5.8c-0.1-0.5,0.3-0.9,0.8-0.9h15.4c3.5,0,5.3-1.8,5.3-5.4c0-6.2-1.2-10.4-3.7-12.8
			c-2.5-2.4-6.1-3.6-10.7-3.6s-8.7,1.4-12.2,4.2c-1.8,1.5-3.2,3.5-4.3,6.2c-1.1,2.7-1.6,5.9-1.6,9.6c0,6.1,1.5,10.8,4.5,14
			c3,3.2,7.6,4.8,13.5,4.8c3,0,5.6-0.4,7.9-1.3c2.3-0.9,3.8-1.6,4.4-2.1c0.6-0.5,1-1,1.3-1.3l-2.2-6L499,134.8z M483.7,115.7
			c1.1-1.2,2.6-1.8,4.5-1.8c2,0,3.4,0.6,4.2,1.7c0.8,1.1,1.2,2.2,1.2,3.2c0,1,0,1.8-0.2,2.5l-10.9,0.4c-0.5,0-0.9-0.4-0.8-0.9
			C482.2,118.4,482.8,116.7,483.7,115.7z"/>
		<path class="st1" d="M528.2,121.6l-5.9-1.6c-3.4-0.9-5.2-2.3-5.2-4.1c0-1.9,1.7-2.9,5-2.9c1.2,0,2.5,0.1,3.7,0.4
			c0.3,0.1,0.5,0.3,0.6,0.6c0.2,0.9,0.5,1.8,1,2.7c0.1,0.3,0.4,0.4,0.7,0.4h5.1c0.3,0,0.6-0.2,0.7-0.5c1.1-2.3,1.5-4.9,1.4-7.6
			c-0.2-0.3-0.4-0.5-0.5-0.8c-3.3-1.3-7.3-2-12-2c-4.9,0-8.7,1.1-11.4,3.2c-2.6,2.1-4,4.8-4,8.1c0,3.3,0.8,5.8,2.5,7.4
			c1.7,1.7,4.1,2.9,7.1,3.8l5.9,1.7c1.8,0.5,2.9,1,3.5,1.5c0.6,0.5,0.9,1.2,0.9,2c0,2.5-2.2,3.8-6.6,3.8c-1.6,0-2.8-0.1-3.8-0.3
			c-0.3-0.1-0.5-0.3-0.6-0.6c-0.2-1-0.5-1.9-1-2.8c-0.1-0.3-0.4-0.5-0.7-0.5h-5.2c-0.3,0-0.6,0.2-0.7,0.5c-0.9,1.9-1.3,4-1.4,6.2
			c0.8,1.1,1.5,2.2,2.3,3.3c2.9,1,6.7,1.5,11.2,1.5c5.7,0,9.9-1.2,12.5-3.6c2.6-2.4,3.9-5.5,3.9-9.2
			C537.3,126.7,534.3,123.2,528.2,121.6z"/>
		<path class="st1" d="M562,121.6l-5.9-1.6c-3.4-0.9-5.2-2.3-5.2-4.1c0-1.9,1.7-2.9,5-2.9c1.2,0,2.5,0.1,3.7,0.4
			c0.3,0.1,0.5,0.3,0.6,0.6c0.2,0.9,0.5,1.8,1,2.7c0.1,0.3,0.4,0.4,0.7,0.4h5.1c0.3,0,0.6-0.2,0.7-0.5c1.1-2.3,1.5-4.9,1.4-7.6
			c-0.2-0.3-0.4-0.5-0.5-0.8c-3.3-1.3-7.3-2-12-2c-4.9,0-8.7,1.1-11.4,3.2c-2.6,2.1-4,4.8-4,8.1c0,3.3,0.8,5.8,2.5,7.4
			c1.7,1.7,4.1,2.9,7.1,3.8l5.9,1.7c1.7,0.5,2.9,1,3.5,1.5c0.6,0.5,0.9,1.2,0.9,2c0,2.5-2.2,3.8-6.6,3.8c-1.6,0-2.8-0.1-3.8-0.3
			c-0.3-0.1-0.5-0.3-0.6-0.6c-0.2-1-0.5-1.9-1-2.8c-0.1-0.3-0.4-0.5-0.7-0.5h-5.2c-0.3,0-0.6,0.2-0.7,0.5c-0.9,1.9-1.3,4-1.4,6.2
			c0.8,1.1,1.5,2.2,2.3,3.3c2.9,1,6.7,1.5,11.2,1.5c5.7,0,9.9-1.2,12.5-3.6c2.6-2.4,3.9-5.5,3.9-9.2
			C571.2,126.7,568.1,123.2,562,121.6z"/>
	</g>
	<path class="st1" d="M81.2,316.6"/>
	<g>
		<path class="st1" d="M90.2,154.2c7-9.8,16.2-14.8,27.6-14.8c7.2,0,13.3,0.5,18.2,1.5c4.3,0.9,7.6,4.4,8.2,8.7
			c0.6,3.9,1.3,7.3,2.1,10.2c1.2,4.5,5.4,7.5,10.1,7.5H169c4.6,0,8.7-2.9,10-7.3c1.1-3.5,2-7.4,2.8-11.7c1.3-7.8,2-13.3,2-16.5v-0.5
			c0-3.9-2.1-7.4-5.5-9.3c-17.9-9.8-36.6-14.7-56.2-14.7c-26.9,0-47.9,8.4-62.7,25c-11.2,12.5-18.1,30.1-21,52.8
			c-0.9,7.6-1.4,15.8-1.4,24.5c0,34.9,6,60,18.1,75.4c12,15.4,31.6,23,58.8,23c23.3,0,44-4.4,62.1-13.2c5-2.4,7.3-8.3,5.2-13.5
			l-3-7.4c-2-5-7.5-7.7-12.6-6.2c-13.8,4.1-29.1,6.1-45.7,6.1c-13.3,0-23.3-5.2-30-15.5c-6.7-10.3-10.1-27.8-10.1-52.5
			c0-4.1,0.1-8,0.3-11.6C81,175.8,84.4,162.4,90.2,154.2z"/>
		<path class="st1" d="M260.7,279.5c-1.4-0.9-2.9-1.8-4.7-2.7c-3.6-1.8-5.9-5.4-5.9-9.4V110.9c0-5.7-4.5-10.3-10.1-10.5
			c-3.9-0.1-8.2-0.2-12.9-0.2c-6.9,0-14.3,0.7-22.1,2.1c-4.5,0.8-7.9,4.5-8.5,9l-1.2,9c-0.5,3.7,1,7.5,4,9.7c1.5,1.1,3.2,2.1,5.1,3
			c3.6,1.8,5.8,5.4,5.8,9.4v124.9c0,4.1-2.4,7.7-6.1,9.5c-1.6,0.8-3,1.5-4.2,2.4c-3.4,2.2-5.1,6.2-4.6,10.2l1,7.3
			c0.7,5.2,5.1,9.2,10.4,9.2h47c5.3,0,9.8-3.9,10.4-9.2l0.9-7.2C265.6,285.6,263.9,281.7,260.7,279.5z"/>
		<path class="st1" d="M413.4,221.7c-1.3-19.2-6.7-33.6-16-43.3c-10.9-11.4-27.6-17.1-50.2-17.1c-22.6,0-39.9,6.4-51.9,19.2
			c-9,9.6-14.7,22.4-16.9,38.4c-0.7,5.3-1.1,11-1.1,17.1c0,24.2,5.4,42.2,16.2,54.2c10.8,12,27.5,17.9,49.9,17.9
			c22.5,0,39.8-6.7,52.1-20c12.2-13.4,18.4-32.2,18.4-56.3C413.7,228.3,413.6,224.9,413.4,221.7z M366.1,268.7
			c-4.5,6.9-11.3,10.4-20.6,10.4c-18.2,0-27.3-15.2-27.3-45.5c0-4.7,0.2-8.9,0.6-12.7c0.9-9.2,2.9-16.1,6-20.7
			c4.4-6.5,11.1-9.8,20.2-9.8c15.7,0,24.8,10.5,27.2,31.6c0.4,3.9,0.7,8.1,0.7,12.7C372.7,250.4,370.5,261.8,366.1,268.7z"/>
		<path class="st1" d="M576.5,273.7c-0.2,0-0.4-0.1-0.5-0.1c-4.6-1.3-7.7-5.4-7.7-10.2v-92.8c0-5.7-4.5-10.3-10.1-10.5
			c-4-0.1-8.3-0.2-12.9-0.2c-6.9,0-14.3,0.7-22.1,2.1c-4.5,0.8-7.9,4.5-8.5,9l-1.1,9c-0.5,3.7,1,7.5,4,9.7c1.5,1.1,3.2,2.1,5.1,3
			c3.6,1.8,5.8,5.4,5.8,9.4v60c0,3.8-2.1,7.3-5.5,9.2c-6.4,3.6-13.2,5.5-20.4,5.5c-9.3,0-15.5-1.7-18.6-5
			c-3.1-3.3-4.7-10.1-4.7-20.4v-80.9c0-5.7-4.4-10.3-10.1-10.5c-3.9-0.1-8.3-0.2-12.9-0.2c-6.9,0-14.3,0.7-22.1,2.1
			c-4.5,0.8-7.9,4.5-8.5,9l-1.2,9c-0.5,3.7,1,7.5,4,9.7c1.5,1.1,3.2,2.1,5.1,3c3.6,1.8,5.8,5.4,5.8,9.4v58.7
			c0,16.7,3.5,28.7,10.5,36.1c7,7.4,19.4,11.1,37.1,11.1c13.3,0,25.2-2.6,35.9-7.9c4.7-2.3,10.5-1.1,13.4,3.2
			c0.1,0.1,0.2,0.3,0.3,0.4c2,2.8,5.5,4.4,9,4.2c12-0.4,22.6-2.4,31.6-5.9c4-1.6,6.8-5.5,6.8-9.8v-8.5
			C583.9,279.2,580.9,275,576.5,273.7z"/>
		<path class="st1" d="M760.9,184.1c-3.6-20.4-11.9-36.7-24.7-49c-17.9-17.1-42.2-25.6-72.7-25.6h-54.1c-5.3,0-9.8,4-10.5,9.3
			l-1.1,9c-0.5,4,1.3,7.9,4.6,10.1c1.3,0.8,2.7,1.6,4.3,2.4c3.7,1.8,6.1,5.5,6.1,9.5v116.1c0,4.1-2.4,7.8-6.1,9.5
			c-1.5,0.7-2.9,1.5-4.1,2.2c-3.5,2.1-5.3,6.1-4.8,10.1l1.1,8.8c0.6,5.3,5.1,9.3,10.5,9.3h63.2c27.9,0,49.9-7.6,66.2-22.9
			c16.2-15.3,24.3-39.5,24.3-72.6C763.1,201,762.4,192.2,760.9,184.1z M708,261.9c-8.2,8.6-19.5,12.9-33.7,12.9h-10
			c-5.8,0-10.5-4.7-10.5-10.5V151.1c0-5.8,4.7-10.5,10.5-10.5h2.3c30.5,0,48,17.1,52.6,51.4c0.8,6,1.2,12.6,1.2,19.7
			C720.4,236.5,716.3,253.3,708,261.9z"/>
	</g>
</g>
</svg>
