<svg width="777" height="775" viewBox="0 0 777 775" fill="none" xmlns="http://www.w3.org/2000/svg">
<g opacity="0.2">
<path opacity="0.0909091" d="M241.362 353.584C253.667 346.509 269.142 342.707 284.617 342.866C290.901 342.918 296.817 343.71 302.362 345.03C308.33 346.403 315.249 349.201 320.055 352L697.044 569.581C709.983 577.078 716.797 588.905 716.057 601.841C715.846 605.431 715.001 608.916 713.786 612.348C710.512 621.587 701.269 631.355 690.601 637.48L478.762 759.76C476.016 761.344 472.477 763.087 469.467 764.354C459.274 768.525 447.76 770.848 436.035 770.901C422.621 770.953 410.368 768.102 400.755 762.559L22.3933 544.185C9.40097 536.688 2.64072 524.808 3.43294 511.873C3.6442 508.81 4.27798 505.801 5.22864 502.791C8.29187 493.024 17.8513 482.622 28.9951 476.181L241.362 353.584Z" fill="black"/>
<path opacity="0.1818" d="M242.048 355.273C254.248 348.251 269.723 344.555 284.934 344.872C291.166 345.03 297.028 345.981 302.468 347.301C307.855 348.621 315.566 351.947 319.897 354.428L693.453 570.003C706.286 577.395 712.36 589.169 710.881 601.682C710.459 605.114 709.403 608.388 708.135 611.661C704.913 619.898 694.403 630.141 684.844 635.684L477.072 755.589C474.59 757.015 470.682 759.021 467.988 760.13C458.059 764.248 446.757 766.677 435.296 766.782C422.145 766.941 410.104 764.142 400.703 758.704L24.4531 541.545C11.5664 534.101 5.54551 522.274 7.12994 509.761C7.49964 506.804 8.39746 504.006 9.34812 501.155C12.3585 492.443 23.3439 481.461 33.3787 475.706L242.048 355.273Z" fill="black"/>
<path opacity="0.2727" d="M242.682 356.963C254.776 349.993 270.198 346.456 285.198 346.931C291.377 347.142 297.134 348.251 302.468 349.624C307.221 350.838 315.777 354.692 319.632 356.91L689.703 570.531C702.431 577.87 707.818 589.486 705.547 601.63C704.966 604.85 703.646 607.913 702.325 611.081C699.262 618.314 687.379 629.085 678.876 633.995L475.171 751.576C473.005 752.844 468.675 755.061 466.245 756.064C456.527 760.183 445.489 762.664 434.24 762.823C421.353 763.034 409.47 760.394 400.28 755.061L26.1431 539.117C13.362 531.725 8.0278 520.004 10.4573 507.807C11.0382 505.009 12.0945 502.369 13.1508 499.624C16.1084 491.968 28.5197 480.458 37.4453 475.284L242.682 356.963Z" fill="black"/>
<path opacity="0.3636" d="M243.369 358.6C255.357 351.683 270.779 348.251 285.567 348.937C291.694 349.201 297.398 350.469 302.626 351.947C306.799 353.056 316.147 357.491 319.474 359.392L686.111 571.007C698.681 578.293 703.435 589.75 700.371 601.524C699.579 604.586 698.047 607.385 696.621 610.447C693.717 616.677 680.513 627.976 673.066 632.253L473.481 747.458C471.579 748.567 466.879 751.049 464.766 751.946C455.313 756.012 444.433 758.599 433.5 758.81C420.93 759.074 409.206 756.54 400.174 751.365L28.0972 536.635C15.4218 529.296 10.7741 517.681 14.1014 505.854C14.8408 503.214 16.1612 500.785 17.2703 498.145C20.0694 491.545 34.0124 479.455 41.8289 474.967L243.369 358.6Z" fill="black"/>
<path opacity="0.4545" d="M244.002 360.289C255.886 353.425 271.307 350.152 285.831 350.944C291.905 351.313 297.503 352.739 302.679 354.217C306.218 355.22 316.411 360.183 319.263 361.873L682.414 571.482C694.879 578.662 698.998 590.014 695.09 601.418C694.139 604.27 692.344 606.857 690.865 609.813C688.224 615.04 673.542 626.867 667.151 630.563L471.632 743.393C469.995 744.343 464.925 747.036 463.129 747.828C453.887 751.841 443.271 754.533 432.55 754.797C420.244 755.114 408.677 752.738 399.91 747.669L29.9457 534.154C17.3759 526.867 13.3621 515.357 17.5872 503.9C18.4851 501.419 20.0166 499.201 21.2314 496.614C23.8193 491.017 39.3467 478.399 46.0541 474.544L244.002 360.289Z" fill="black"/>
<path opacity="0.5455" d="M244.636 361.979C256.414 355.168 271.836 352 286.095 353.003C292.116 353.425 297.609 355.009 302.679 356.54C305.637 357.438 316.622 362.982 318.999 364.355L678.717 571.957C691.023 579.085 694.509 590.278 689.808 601.366C688.646 604.058 687.168 606.751 685.108 609.233C683.576 613.879 666.57 625.811 661.289 628.873L469.837 739.38C468.463 740.172 463.023 743.129 461.545 743.762C452.513 747.775 442.162 750.468 431.652 750.837C419.61 751.26 408.255 748.937 399.646 743.974L31.7942 531.672C19.2772 524.439 15.95 513.034 21.073 501.894C22.1293 499.571 23.3968 497.248 25.1396 495.083C26.5128 490.12 44.6282 477.395 50.2265 474.175L244.636 361.979Z" fill="black"/>
<path opacity="0.6364" d="M245.323 363.615C256.995 356.857 272.417 353.848 286.412 355.009C292.38 355.537 297.82 357.227 302.785 358.811C305.109 359.55 316.939 365.674 318.84 366.783L675.073 572.379C687.273 579.402 690.178 590.542 684.58 601.207C683.259 603.742 681.622 606.223 679.404 608.546C678.189 612.295 659.704 624.597 655.426 627.078L468.041 735.209C466.932 735.843 461.122 739.011 459.96 739.539C451.193 743.498 441.053 746.297 430.807 746.719C419.029 747.194 407.832 745.03 399.488 740.172L33.6956 529.032C21.2842 521.904 18.5907 510.553 24.6115 499.782C25.8262 497.617 27.2522 495.452 29.1535 493.393C30.2626 489.433 50.0152 476.181 54.5044 473.594L245.323 363.615Z" fill="black"/>
<path opacity="0.7273" d="M245.956 365.305C257.523 358.6 272.892 355.748 286.676 357.016C292.592 357.596 297.926 359.497 302.785 361.134C304.528 361.715 317.15 368.473 318.576 369.265L671.376 572.907C683.418 579.877 685.794 590.859 679.298 601.154C677.82 603.478 675.971 605.853 673.594 608.018C672.696 610.816 652.68 623.594 649.511 625.442L466.192 731.249C465.347 731.724 459.221 735.156 458.323 735.579C449.767 739.539 439.891 742.39 429.856 742.865C418.395 743.393 407.304 741.334 399.171 736.635L35.4912 526.709C23.1854 519.634 21.0729 508.335 28.0972 497.987C29.4703 495.98 31.0548 493.921 33.1145 492.073C33.9596 489.117 55.4022 475.336 58.7295 473.436L245.956 365.305Z" fill="black"/>
<path opacity="0.8182" d="M246.643 366.994C258.157 360.342 273.473 357.596 286.993 359.075C292.856 359.708 298.084 361.767 302.89 363.457C304.052 363.879 317.467 371.218 318.418 371.799L667.732 573.435C679.668 580.299 681.464 591.281 674.07 601.102C672.432 603.266 670.426 605.431 667.89 607.437C667.257 609.285 645.814 622.538 643.649 623.752L464.397 727.184C463.869 727.501 457.32 731.196 456.739 731.46C448.394 735.367 438.782 738.324 428.958 738.852C417.762 739.486 406.882 737.479 398.96 732.939L37.3926 524.227C25.1925 517.205 23.608 505.959 31.6358 495.98C33.1674 494.133 34.9103 492.232 37.1285 490.489C37.6567 488.536 60.7894 474.28 63.0076 472.96L246.643 366.994Z" fill="black"/>
<path opacity="0.9091" d="M247.277 368.631C258.685 362.031 274.001 359.444 287.257 361.081C293.067 361.82 298.19 363.985 302.943 365.727C303.524 365.938 317.731 373.911 318.207 374.228L664.088 573.858C675.865 580.669 677.186 591.545 668.894 600.943C667.098 602.95 664.88 604.903 662.239 606.751C661.922 607.701 638.948 621.376 637.892 622.01L462.759 723.118C462.495 723.277 455.577 727.236 455.26 727.342C447.126 731.196 437.778 734.259 428.219 734.839C417.286 735.526 406.565 733.678 398.854 729.19L39.3467 521.693C27.2522 514.724 26.1959 503.478 35.2272 493.974C36.8644 492.232 38.8186 490.542 41.1952 488.958C41.4593 487.955 66.2292 473.224 67.3383 472.591L247.277 368.631Z" fill="black"/>
<path d="M398.59 725.494L41.1424 519.212C27.0409 511.081 28.7838 496.825 45.1034 487.427L247.963 370.321C264.283 360.923 288.895 359.867 303.049 368.05L660.444 574.333C674.545 582.464 672.802 596.719 656.482 606.117L453.623 723.171C437.356 732.622 412.691 733.625 398.59 725.494Z" fill="black"/>
</g>
<path d="M398.59 725.125L41.1951 518.842C34.9102 515.199 31.7413 510.394 31.6885 505.273C31.6885 505.115 31.6885 487.744 31.6885 487.586C31.7941 481.408 36.389 492.126 45.1561 487.058L248.016 370.004C264.336 360.606 288.947 359.603 303.101 367.734L660.496 574.016C665.197 576.709 668.63 565.199 669.844 568.842C670.267 570.056 670.003 586.265 670.003 587.533C670.161 593.868 665.566 600.574 656.535 605.801L453.675 722.854C437.356 732.252 412.691 733.308 398.59 725.125Z" fill="url(#paint0_linear_4058_1848)"/>
<path d="M398.59 707.754L41.1952 501.471C27.0938 493.341 28.8367 479.085 45.1563 469.687L248.016 352.633C264.336 343.235 288.947 342.232 303.102 350.363L660.496 556.646C674.598 564.777 672.855 579.032 656.535 588.43L453.675 705.484C437.356 714.882 412.691 715.938 398.59 707.754Z" fill="url(#paint1_linear_4058_1848)"/>
<path d="M669.95 570.426C669.95 576.656 665.408 583.256 656.482 588.377L453.622 705.431C437.303 714.829 412.691 715.832 398.537 707.701L41.1423 501.419C34.3292 497.459 31.2132 492.126 31.6885 486.582C31.6357 486.846 31.6357 487.163 31.6357 487.533C31.6357 487.691 31.6357 505.062 31.6357 505.22C31.7414 510.289 34.8574 515.146 41.1423 518.789L398.537 725.072C412.639 733.203 437.303 732.2 453.622 722.801L656.482 605.801C665.514 600.574 670.109 593.868 669.95 587.532C669.95 586.477 670.109 574.808 669.95 570.426Z" fill="url(#paint2_linear_4058_1848)"/>
<path opacity="0.15" d="M669.95 605.325C669.95 611.556 665.408 618.155 656.482 623.277L453.622 740.33C437.303 749.729 412.691 750.732 398.537 742.601L41.1423 536.318C34.3292 532.358 31.2132 527.026 31.6885 521.482C31.6357 521.746 31.6357 522.063 31.6357 522.432C31.6357 522.591 31.6357 539.961 31.6357 540.12C31.7414 545.188 34.8574 550.046 41.1423 553.689L398.537 759.971C412.639 768.102 437.303 767.099 453.622 757.701L656.482 640.647C665.514 635.42 670.109 628.715 669.95 622.379C669.95 621.376 670.109 609.708 669.95 605.325Z" fill="url(#paint3_linear_4058_1848)"/>
<path d="M422.462 706.117C414.434 706.117 407.199 704.48 402.128 701.577L44.7337 495.294C42.5155 494.027 38.7656 491.334 38.7656 487.691C38.7656 483.89 42.4627 479.455 48.6948 475.917L251.555 358.863C259.054 354.534 269.142 352.052 279.124 352.052C287.152 352.052 294.387 353.689 299.457 356.593L656.852 562.876C659.07 564.143 662.82 566.836 662.82 570.479C662.82 574.28 659.123 578.715 652.891 582.305L450.084 699.359C442.531 703.636 432.497 706.117 422.462 706.117Z" fill="url(#paint4_linear_4058_1848)"/>
<path d="M656.483 585.473L453.622 702.527C437.303 711.925 412.691 712.981 398.537 704.797L41.1423 498.515C35.2799 495.136 32.2168 490.701 31.7414 486.001C31.002 491.756 34.0652 497.353 41.1423 501.471L398.537 707.754C412.639 715.885 437.303 714.882 453.622 705.484L656.483 588.43C665.989 582.939 670.531 575.758 669.845 569.159C669.105 574.861 664.616 580.774 656.483 585.473Z" fill="white"/>
<path d="M656.007 548.673L304.475 345.77C292.75 339.011 287.152 325.125 290.901 312.137L367.482 47.3013C372.764 28.9275 393.889 20.3742 410.473 29.9835L762.005 232.887C773.73 239.645 779.329 253.531 775.579 266.519L698.998 531.355C693.717 549.729 672.591 558.229 656.007 548.673Z" fill="url(#paint5_linear_4058_1848)"/>
<path d="M651.095 548.673L299.563 345.77C287.838 339.011 282.24 325.125 285.99 312.137L362.571 47.3013C367.852 28.9275 388.978 20.3742 405.561 29.9835L757.094 232.887C768.819 239.645 774.417 253.531 770.667 266.519L694.086 531.355C688.805 549.729 667.679 558.229 651.095 548.673Z" fill="url(#paint6_linear_4058_1848)"/>
<path opacity="0.2" d="M665.778 542.812C662.345 542.812 659.07 541.915 656.007 540.172L304.475 337.269C296.658 332.781 292.961 323.542 295.443 314.883L372.024 50.0468C374.454 41.7047 382.218 35.8441 390.879 35.8441C394.312 35.8441 397.587 36.7417 400.65 38.484L752.182 241.387C759.999 245.928 763.696 255.115 761.213 263.774L684.633 528.61C682.256 537.005 674.492 542.812 665.778 542.812Z" fill="url(#paint7_linear_4058_1848)"/>
<path opacity="0.2727" d="M665.408 542.126C661.975 542.126 658.701 541.228 655.69 539.486L305.425 337.322C297.662 332.834 293.912 323.647 296.447 315.041L372.816 50.9972C375.193 42.6551 382.957 36.8473 391.618 36.8473C395.051 36.8473 398.326 37.7449 401.336 39.4872L751.548 241.652C759.365 246.139 763.062 255.326 760.58 263.932L684.21 527.976C681.833 536.318 674.069 542.126 665.408 542.126Z" fill="url(#paint8_linear_4058_1848)"/>
<path opacity="0.3455" d="M665.038 541.44C661.605 541.44 658.384 540.542 655.373 538.8L306.323 337.375C298.56 332.887 294.863 323.753 297.345 315.147L373.503 51.9476C375.88 43.6583 383.591 37.8505 392.252 37.8505C395.685 37.8505 398.907 38.748 401.917 40.4904L750.915 241.916C758.678 246.403 762.375 255.537 759.893 264.144L683.787 527.395C681.358 535.632 673.7 541.44 665.038 541.44Z" fill="url(#paint9_linear_4058_1848)"/>
<path opacity="0.4182" d="M664.669 540.753C661.288 540.753 658.014 539.856 655.004 538.166L307.274 337.48C299.563 332.992 295.866 323.911 298.348 315.358L374.242 52.8979C376.619 44.6614 384.33 38.8536 392.939 38.8536C396.319 38.8536 399.593 39.7512 402.604 41.4407L750.333 242.127C758.044 246.615 761.741 255.696 759.259 264.249L683.365 526.709C680.935 534.998 673.277 540.753 664.669 540.753Z" fill="url(#paint10_linear_4058_1848)"/>
<path opacity="0.4909" d="M664.299 540.067C660.919 540.067 657.697 539.169 654.687 537.48L308.225 337.533C300.514 333.098 296.869 324.017 299.299 315.463L374.982 53.7955C377.358 45.559 385.017 39.804 393.572 39.804C396.953 39.804 400.174 40.7015 403.185 42.3911L749.647 242.338C757.358 246.773 761.002 255.854 758.573 264.408L682.89 526.075C680.513 534.312 672.855 540.067 664.299 540.067Z" fill="url(#paint11_linear_4058_1848)"/>
<path opacity="0.5636" d="M663.929 539.381C660.549 539.381 657.327 538.483 654.37 536.793L309.122 337.586C301.464 333.151 297.82 324.122 300.25 315.622L375.669 54.7459C378.045 46.5621 385.65 40.8071 394.206 40.8071C397.586 40.8071 400.808 41.7047 403.766 43.3942L748.96 242.655C756.618 247.09 760.263 256.118 757.833 264.619L682.414 525.495C680.09 533.678 672.485 539.381 663.929 539.381Z" fill="url(#paint12_linear_4058_1848)"/>
<path opacity="0.6364" d="M663.559 538.694C660.179 538.694 657.011 537.797 654 536.107L310.073 337.586C302.415 333.151 298.771 324.175 301.253 315.675L376.408 55.6434C378.784 47.4597 386.337 41.7575 394.893 41.7575C398.273 41.7575 401.442 42.6023 404.452 44.3446L748.379 242.866C756.037 247.301 759.682 256.277 757.199 264.777L681.992 524.861C679.668 532.992 672.063 538.694 663.559 538.694Z" fill="url(#paint13_linear_4058_1848)"/>
<path opacity="0.7091" d="M663.19 538.008C659.81 538.008 656.641 537.163 653.683 535.421L311.024 337.639C303.418 333.256 299.774 324.281 302.204 315.833L377.147 56.5938C379.524 48.4629 387.076 42.7607 395.527 42.7607C398.854 42.7607 402.076 43.6054 405.033 45.3478L747.693 243.13C755.298 247.512 758.942 256.488 756.513 264.936L681.516 524.175C679.245 532.358 671.64 538.008 663.19 538.008Z" fill="url(#paint14_linear_4058_1848)"/>
<path opacity="0.7818" d="M662.82 537.374C659.493 537.374 656.271 536.529 653.366 534.787L311.974 337.744C304.369 333.362 300.778 324.439 303.207 315.991L377.939 57.5442C380.263 49.4133 387.816 43.7639 396.266 43.7639C399.593 43.7639 402.815 44.6086 405.72 46.351L747.112 243.394C754.717 247.776 758.308 256.699 755.879 265.147L681.147 523.594C678.823 531.672 671.27 537.374 662.82 537.374Z" fill="url(#paint15_linear_4058_1848)"/>
<path opacity="0.8545" d="M662.45 536.688C659.123 536.688 655.954 535.843 652.997 534.154L312.872 337.85C305.32 333.468 301.728 324.597 304.105 316.203L378.626 58.5474C380.95 50.4692 388.449 44.8198 396.9 44.8198C400.227 44.8198 403.396 45.6646 406.354 47.3541L746.478 243.658C754.03 248.04 757.622 256.91 755.245 265.305L680.724 522.96C678.347 531.038 670.848 536.688 662.45 536.688Z" fill="url(#paint16_linear_4058_1848)"/>
<path opacity="0.9273" d="M662.081 536.001C658.753 536.001 655.585 535.157 652.68 533.467L313.823 337.85C306.27 333.52 302.679 324.65 305.108 316.255L379.365 59.3921C381.689 51.314 389.189 45.7174 397.586 45.7174C400.914 45.7174 404.083 46.5622 406.987 48.2517L745.844 243.816C753.397 248.146 756.988 257.016 754.559 265.411L680.249 522.327C677.925 530.352 670.478 536.001 662.081 536.001Z" fill="url(#paint17_linear_4058_1848)"/>
<path d="M661.711 535.315C658.384 535.315 655.268 534.47 652.363 532.781L314.774 337.903C307.274 333.573 303.683 324.756 306.112 316.414L380.158 60.3424C382.482 52.3171 389.928 46.7205 398.273 46.7205C401.548 46.7205 404.716 47.5653 407.621 49.2548L745.211 244.08C752.71 248.41 756.302 257.227 753.872 265.569L679.826 521.64C677.503 529.718 670.056 535.315 661.711 535.315Z" fill="url(#paint18_linear_4058_1848)"/>
<path d="M757.094 232.887L405.561 29.9835C399.118 26.2876 392.041 25.3373 385.386 26.5516C391.354 25.9181 397.534 27.0268 403.238 30.3003L754.77 233.204C766.495 239.962 772.093 253.848 768.343 266.836L691.762 531.672C688.541 542.918 679.351 550.468 668.894 552.422C680.249 551.155 690.548 543.393 694.033 531.355L770.614 266.519C774.417 253.531 768.819 239.645 757.094 232.887Z" fill="white"/>
<path d="M462.073 631.777L171.858 464.249C166.048 460.87 166.788 455.009 173.495 451.155L282.451 388.272C289.159 384.418 299.299 383.995 305.109 387.322L595.323 554.85C601.133 558.229 600.394 564.037 593.686 567.944L484.73 630.827C478.076 634.734 467.882 635.156 462.073 631.777Z" fill="url(#paint19_linear_4058_1848)"/>
<path opacity="0.3" d="M288.789 400.521L307.38 411.239C309.756 412.612 313.559 412.612 315.936 411.239C318.312 409.867 318.26 407.702 315.883 406.329L297.292 395.611C294.915 394.238 291.113 394.238 288.736 395.611C286.412 396.931 286.412 399.149 288.789 400.521ZM320.636 418.895L329.456 423.964C331.833 425.336 335.635 425.336 338.012 423.964C340.389 422.591 340.389 420.426 338.012 419.053L329.192 413.985C326.815 412.612 323.013 412.612 320.636 413.985C318.26 415.358 318.26 417.522 320.636 418.895ZM342.712 431.619L351.533 436.688C353.909 438.061 357.712 438.061 360.088 436.688C362.412 435.315 362.412 433.151 360.036 431.778L351.216 426.709C348.839 425.337 345.036 425.337 342.66 426.709C340.336 428.082 340.336 430.3 342.712 431.619ZM364.736 444.344L373.556 449.412C375.933 450.785 379.735 450.785 382.112 449.412C384.489 448.04 384.436 445.822 382.059 444.502L373.239 439.434C370.863 438.061 367.06 438.061 364.683 439.434C362.359 440.806 362.412 443.024 364.736 444.344ZM386.812 457.121L395.633 462.19C398.009 463.562 401.812 463.562 404.188 462.19C406.565 460.817 406.512 458.652 404.188 457.279L395.368 452.211C392.992 450.838 389.189 450.838 386.812 452.211C384.436 453.531 384.436 455.748 386.812 457.121ZM408.836 469.845L417.656 474.914C420.033 476.287 423.835 476.287 426.212 474.914C428.589 473.541 428.536 471.324 426.159 470.004L417.339 464.935C414.963 463.562 411.16 463.562 408.783 464.935C406.512 466.255 406.512 468.473 408.836 469.845ZM430.912 482.57L439.733 487.638C442.109 489.011 445.912 489.011 448.288 487.638C450.612 486.266 450.612 484.101 448.236 482.728L439.416 477.66C437.039 476.287 433.236 476.287 430.86 477.66C428.536 478.979 428.536 481.197 430.912 482.57ZM452.989 495.294L461.809 500.363C464.186 501.736 467.988 501.736 470.365 500.363C472.742 498.99 472.689 496.825 470.312 495.452L461.492 490.384C459.115 489.011 455.313 489.011 452.936 490.384C450.612 491.704 450.612 493.921 452.989 495.294ZM475.012 508.019L483.833 513.087C486.209 514.46 490.012 514.46 492.388 513.087C494.765 511.714 494.712 509.55 492.388 508.177L483.568 503.108C481.192 501.735 477.389 501.735 475.012 503.108C472.636 504.428 472.689 506.646 475.012 508.019ZM497.089 520.743L505.909 525.811C508.285 527.184 512.088 527.184 514.465 525.811C516.842 524.439 516.789 522.274 514.465 520.901L505.645 515.833C503.268 514.46 499.466 514.46 497.089 515.833C494.712 517.153 494.712 519.37 497.089 520.743ZM519.165 533.467L527.985 538.536C530.362 539.909 534.165 539.909 536.541 538.536C538.865 537.163 538.865 534.998 536.488 533.626L527.668 528.557C525.292 527.184 521.489 527.184 519.112 528.557C516.789 529.877 516.789 532.094 519.165 533.467ZM541.189 546.192L550.009 551.26C552.385 552.633 556.188 552.633 558.565 551.26C560.942 549.887 560.889 547.723 558.565 546.35L549.745 541.281C547.368 539.909 543.566 539.909 541.189 541.281C538.812 542.654 538.812 544.819 541.189 546.192ZM563.688 559.18L572.508 564.249C574.884 565.621 578.687 565.621 581.064 564.249C583.44 562.876 583.388 560.711 581.064 559.338L572.244 554.27C569.867 552.897 566.064 552.897 563.688 554.27C561.364 555.642 561.364 557.86 563.688 559.18ZM268.984 412.665L276.589 417.047C279.282 418.578 283.613 418.631 286.307 417.047L293.912 412.665C296.553 411.134 296.553 408.599 293.859 407.068L286.254 402.686C283.56 401.155 279.23 401.102 276.536 402.686L268.931 407.068C266.237 408.599 266.29 411.081 268.984 412.665ZM308.383 429.824L315.988 425.442C318.682 423.911 318.629 421.377 315.936 419.845L308.33 415.463C305.637 413.932 301.306 413.879 298.612 415.463L291.007 419.845C288.314 421.377 288.367 423.911 291.06 425.442L298.665 429.824C301.359 431.355 305.69 431.355 308.383 429.824ZM313.084 438.114L320.689 442.496C323.382 444.027 327.713 444.08 330.407 442.496L338.012 438.114C340.706 436.583 340.653 434.048 337.959 432.517L330.354 428.135C327.66 426.604 323.33 426.551 320.636 428.135L313.031 432.517C310.39 434.048 310.39 436.583 313.084 438.114ZM335.107 450.838L342.712 455.22C345.406 456.751 349.737 456.804 352.43 455.22L360.036 450.838C362.729 449.307 362.676 446.773 359.983 445.241L352.378 440.859C349.684 439.328 345.353 439.275 342.66 440.859L335.107 445.241C332.414 446.773 332.414 449.307 335.107 450.838ZM382.059 458.019L374.454 453.636C371.76 452.105 367.43 452.052 364.736 453.636L357.184 458.019C354.49 459.55 354.543 462.084 357.236 463.615L364.842 467.997C367.535 469.529 371.866 469.581 374.56 467.997L382.165 463.615C384.806 462.084 384.753 459.55 382.059 458.019ZM404.136 470.743L396.53 466.361C393.837 464.83 389.506 464.777 386.812 466.361L379.207 470.743C376.514 472.274 376.567 474.808 379.26 476.34L386.865 480.722C389.559 482.253 393.89 482.306 396.583 480.722L404.188 476.34C406.829 474.808 406.829 472.327 404.136 470.743ZM426.212 483.467L418.607 479.085C415.913 477.554 411.582 477.501 408.889 479.085L401.284 483.467C398.59 484.998 398.643 487.533 401.336 489.064L408.942 493.446C411.635 494.977 415.966 495.03 418.66 493.446L426.212 489.064C428.906 487.533 428.906 485.051 426.212 483.467ZM448.236 496.192L440.63 491.809C437.937 490.278 433.606 490.225 430.912 491.809L423.307 496.192C420.614 497.723 420.667 500.257 423.36 501.788L430.965 506.171C433.659 507.702 437.99 507.755 440.683 506.171L448.288 501.788C450.929 500.257 450.929 497.776 448.236 496.192ZM470.312 508.916L462.654 504.534C459.96 503.003 455.63 502.95 452.936 504.534L445.331 508.916C442.637 510.447 442.69 512.981 445.384 514.513L452.989 518.895C455.682 520.426 460.013 520.479 462.707 518.895L470.259 514.513C473.006 512.981 473.006 510.5 470.312 508.916ZM492.336 521.64L484.73 517.258C482.037 515.727 477.653 515.674 475.012 517.258L467.46 521.64C464.767 523.172 464.819 525.706 467.513 527.237L475.118 531.619C477.812 533.15 482.142 533.203 484.836 531.619L492.388 527.237C495.082 525.706 495.029 523.224 492.336 521.64ZM489.536 539.961L497.142 544.344C499.835 545.875 504.219 545.928 506.86 544.344L514.412 539.961C517.106 538.43 517.053 535.896 514.412 534.365L506.807 529.983C504.113 528.451 499.782 528.399 497.089 529.983L489.484 534.365C486.79 535.896 486.843 538.377 489.536 539.961ZM536.488 547.142L528.883 542.76C526.19 541.229 521.859 541.176 519.165 542.76L511.613 547.142C508.919 548.673 508.972 551.207 511.666 552.739L519.271 557.121C521.964 558.652 526.295 558.705 528.989 557.121L536.541 552.739C539.182 551.207 539.182 548.673 536.488 547.142ZM568.758 565.78L551.329 555.748C548.636 554.217 544.305 554.164 541.611 555.748L534.059 560.13C531.365 561.661 531.418 564.196 534.112 565.727L551.541 575.759C554.234 577.29 558.565 577.343 561.258 575.759L568.811 571.376C571.504 569.845 571.451 567.311 568.758 565.78ZM248.545 424.439L265.973 434.471C268.667 436.002 272.998 436.055 275.691 434.471L283.296 430.088C285.99 428.557 285.937 426.023 283.244 424.492L265.815 414.46C263.121 412.929 258.79 412.876 256.097 414.46L248.492 418.842C245.851 420.373 245.851 422.908 248.545 424.439ZM280.392 442.813L287.997 447.195C290.69 448.726 295.021 448.779 297.715 447.195L305.267 442.813C307.961 441.282 307.908 438.747 305.214 437.216L297.556 432.834C294.863 431.303 290.532 431.25 287.838 432.834L280.286 437.216C277.698 438.747 277.698 441.282 280.392 442.813ZM310.073 459.972C312.767 461.503 317.15 461.556 319.791 459.972L327.344 455.59C330.037 454.059 329.984 451.524 327.344 449.993L319.685 445.611C316.992 444.08 312.661 444.027 309.968 445.611L302.362 449.993C299.669 451.524 299.722 454.059 302.415 455.59L310.073 459.972ZM332.097 472.696C334.79 474.228 339.121 474.28 341.815 472.696L349.367 468.314C352.061 466.783 352.008 464.249 349.367 462.718L341.762 458.335C339.068 456.804 334.685 456.751 332.044 458.335L324.439 462.718C321.798 464.249 321.798 466.783 324.492 468.314L332.097 472.696ZM354.068 471.06L346.515 475.442C343.822 476.973 343.874 479.507 346.568 481.039L354.173 485.421C356.867 486.952 361.198 487.005 363.891 485.421L371.496 481.039C374.19 479.507 374.137 476.973 371.444 475.442L363.838 471.06C361.145 469.529 356.761 469.476 354.068 471.06ZM376.619 483.52L368.116 488.43C365.687 489.803 365.687 492.073 368.116 493.499L376.672 498.462C379.102 499.888 383.01 499.888 385.439 498.462L393.942 493.552C396.372 492.179 396.372 489.909 393.942 488.483L385.387 483.52C382.957 482.095 379.049 482.095 376.619 483.52ZM398.643 496.244L390.14 501.155C387.71 502.527 387.71 504.798 390.193 506.223L398.749 511.186C401.178 512.612 405.139 512.612 407.516 511.186L416.019 506.276C418.448 504.851 418.448 502.633 415.966 501.208L407.41 496.244C405.033 494.819 401.072 494.819 398.643 496.244ZM420.719 508.969L412.216 513.879C409.787 515.252 409.787 517.522 412.216 518.948L420.772 523.911C423.202 525.336 427.163 525.336 429.539 523.911L438.042 519C440.472 517.628 440.472 515.357 437.99 513.932L429.434 508.969C427.057 507.596 423.149 507.543 420.719 508.969ZM442.796 521.693L434.293 526.603C431.863 527.976 431.863 530.247 434.293 531.672L442.849 536.635C445.278 538.061 449.239 538.061 451.616 536.635L460.119 531.725C462.548 530.352 462.496 528.082 460.066 526.656L451.51 521.693C449.133 520.32 445.172 520.268 442.796 521.693ZM464.819 534.418L456.316 539.328C453.887 540.701 453.887 542.971 456.316 544.396L464.872 549.359C467.302 550.785 471.263 550.785 473.639 549.359L482.142 544.449C484.572 543.077 484.572 540.806 482.142 539.381L473.586 534.418C471.21 533.045 467.249 533.045 464.819 534.418ZM495.769 562.084L504.272 557.174C506.701 555.801 506.648 553.531 504.219 552.105L495.663 547.142C493.233 545.716 489.272 545.716 486.896 547.142L478.393 552.052C475.963 553.425 476.016 555.695 478.445 557.121L487.001 562.084C489.431 563.457 493.339 563.509 495.769 562.084ZM517.792 574.808L526.295 569.898C528.725 568.525 528.725 566.255 526.295 564.829L517.739 559.866C515.31 558.441 511.402 558.441 508.972 559.866L500.469 564.777C498.04 566.149 498.092 568.42 500.522 569.845L509.078 574.808C511.454 576.181 515.415 576.234 517.792 574.808ZM548.794 577.818L540.238 572.855C537.809 571.429 533.901 571.429 531.471 572.855L522.968 577.765C520.538 579.138 520.591 581.408 523.021 582.834L531.577 587.797C534.006 589.222 537.967 589.222 540.344 587.797L548.847 582.886C551.224 581.514 551.224 579.243 548.794 577.818ZM227.63 435.949L255.305 451.894C257.734 453.32 261.695 453.32 264.072 451.894L272.575 446.984C275.005 445.611 275.005 443.341 272.522 441.915L244.848 425.97C242.418 424.545 238.51 424.545 236.08 425.97L227.577 430.88C225.201 432.306 225.201 434.576 227.63 435.949ZM268.772 459.708L277.328 464.671C279.758 466.097 283.719 466.097 286.096 464.671L294.599 459.761C297.028 458.388 296.975 456.118 294.546 454.692L285.99 449.729C283.56 448.304 279.599 448.304 277.223 449.729L268.72 454.639C266.343 456.065 266.343 458.335 268.772 459.708ZM290.849 472.432L299.405 477.396C301.834 478.821 305.795 478.821 308.172 477.396L316.675 472.485C319.105 471.113 319.105 468.842 316.622 467.417L308.066 462.454C305.637 461.028 301.676 461.028 299.299 462.454L290.796 467.364C288.367 468.789 288.419 471.06 290.849 472.432ZM312.872 485.157L321.428 490.12C323.858 491.545 327.766 491.545 330.195 490.12L338.699 485.21C341.128 483.837 341.075 481.567 338.646 480.141L330.09 475.178C327.66 473.752 323.699 473.752 321.323 475.178L312.82 480.088C310.443 481.514 310.443 483.784 312.872 485.157ZM352.272 502.844L360.775 497.934C363.205 496.561 363.205 494.291 360.775 492.865L352.219 487.902C349.79 486.477 345.829 486.477 343.452 487.902L334.949 492.813C332.519 494.185 332.572 496.456 335.002 497.881L343.558 502.844C345.934 504.27 349.895 504.27 352.272 502.844ZM374.348 515.569L382.851 510.658C385.281 509.286 385.281 507.015 382.799 505.59L374.243 500.627C371.813 499.201 367.852 499.201 365.476 500.627L356.972 505.537C354.543 506.91 354.596 509.18 357.025 510.606L365.581 515.569C368.011 516.994 371.919 516.994 374.348 515.569ZM396.425 528.346L404.928 523.436C407.357 522.063 407.357 519.792 404.928 518.367L396.372 513.404C393.942 511.978 390.034 511.978 387.605 513.404L379.102 518.314C376.672 519.687 376.672 521.957 379.154 523.383L387.71 528.346C390.087 529.719 393.995 529.719 396.425 528.346ZM418.448 541.07L426.951 536.16C429.381 534.787 429.328 532.517 426.951 531.091L418.395 526.128C415.966 524.703 412.005 524.703 409.628 526.128L401.125 531.039C398.696 532.411 398.749 534.682 401.178 536.107L409.734 541.07C412.111 542.443 416.019 542.443 418.448 541.07ZM440.525 553.795L449.028 548.884C451.457 547.512 451.457 545.241 448.975 543.816L440.419 538.853C437.99 537.427 434.081 537.427 431.652 538.853L423.149 543.763C420.719 545.136 420.719 547.406 423.202 548.831L431.758 553.795C434.187 555.167 438.095 555.167 440.525 553.795ZM462.601 566.519L471.104 561.609C473.534 560.236 473.534 557.966 471.104 556.54L462.548 551.577C460.119 550.151 456.158 550.151 453.781 551.577L445.278 556.487C442.849 557.86 442.901 560.13 445.331 561.556L453.887 566.519C456.211 567.892 460.172 567.892 462.601 566.519ZM467.302 574.28L475.858 579.243C478.287 580.669 482.195 580.669 484.625 579.243L493.128 574.333C495.557 572.96 495.557 570.69 493.075 569.264L484.519 564.301C482.09 562.876 478.181 562.876 475.752 564.301L467.249 569.212C464.819 570.637 464.872 572.908 467.302 574.28ZM528.408 589.645L506.648 577.079C504.219 575.653 500.311 575.653 497.881 577.079L489.378 581.989C486.949 583.362 486.949 585.632 489.378 587.057L511.138 599.623C513.567 601.049 517.528 601.049 519.905 599.623L528.408 594.713C530.837 593.288 530.837 591.017 528.408 589.645ZM207.297 448.357L246.538 471.007C249.284 472.591 253.72 472.591 256.467 471.007L263.861 466.73C266.607 465.146 266.607 462.612 263.808 461.028L224.567 438.378C221.82 436.794 217.384 436.794 214.638 438.378L207.244 442.654C204.55 444.238 204.55 446.773 207.297 448.357ZM261.167 479.455L268.614 483.731C271.36 485.315 275.797 485.315 278.543 483.731L285.937 479.455C288.683 477.871 288.631 475.336 285.884 473.752L278.437 469.476C275.691 467.892 271.255 467.892 268.508 469.476L261.114 473.752C258.421 475.336 258.421 477.871 261.167 479.455ZM283.191 492.179L290.638 496.456C293.384 498.04 297.82 498.04 300.567 496.456L307.961 492.179C310.707 490.595 310.654 488.061 307.908 486.477L300.461 482.2C297.715 480.616 293.278 480.616 290.532 482.2L283.138 486.477C280.444 488.061 280.497 490.595 283.191 492.179ZM305.267 504.903L312.714 509.18C315.46 510.764 319.897 510.764 322.643 509.18L330.037 504.903C332.783 503.319 332.783 500.785 329.984 499.201L322.537 494.925C319.791 493.341 315.355 493.341 312.608 494.925L305.214 499.201C302.521 500.785 302.521 503.319 305.267 504.903ZM327.344 517.628L334.79 521.904C337.537 523.488 341.973 523.488 344.719 521.904L352.113 517.628C354.86 516.044 354.807 513.509 352.061 511.926L344.614 507.649C341.867 506.065 337.431 506.065 334.685 507.649L327.291 511.926C324.544 513.509 324.597 516.044 327.344 517.628ZM349.367 530.405L356.814 534.682C359.56 536.266 363.997 536.266 366.743 534.682L374.137 530.405C376.883 528.821 376.831 526.287 374.084 524.703L366.637 520.426C363.891 518.842 359.455 518.842 356.708 520.426L349.314 524.703C346.621 526.234 346.621 528.821 349.367 530.405ZM371.444 543.129L378.89 547.406C381.637 548.99 386.073 548.99 388.819 547.406L396.213 543.129C398.96 541.545 398.96 539.011 396.161 537.427L388.767 533.15C386.02 531.566 381.584 531.566 378.838 533.15L371.444 537.427C368.697 538.958 368.697 541.545 371.444 543.129ZM393.52 555.854L400.914 560.13C403.66 561.714 408.097 561.714 410.843 560.13L418.237 555.854C420.983 554.27 420.983 551.735 418.184 550.151L410.737 545.875C407.991 544.291 403.555 544.291 400.808 545.875L393.414 550.151C390.721 551.683 390.774 554.27 393.52 555.854ZM415.544 568.578L422.99 572.855C425.737 574.439 430.173 574.439 432.919 572.855L440.313 568.578C443.06 566.994 443.007 564.46 440.261 562.876L432.814 558.599C430.067 557.015 425.631 557.015 422.885 558.599L415.491 562.876C412.797 564.407 412.797 566.994 415.544 568.578ZM437.62 581.302L445.067 585.579C447.813 587.163 452.25 587.163 454.996 585.579L462.39 581.302C465.136 579.718 465.136 577.184 462.337 575.6L454.943 571.324C452.197 569.74 447.76 569.74 445.014 571.324L437.62 575.6C434.821 577.131 434.874 579.718 437.62 581.302ZM459.644 594.027L467.09 598.303C469.837 599.887 474.273 599.887 477.019 598.303L484.413 594.027C487.16 592.443 487.107 589.909 484.361 588.325L476.914 584.048C474.167 582.464 469.731 582.464 466.985 584.048L459.591 588.325C456.897 589.856 456.897 592.443 459.644 594.027ZM506.912 601.366L499.466 597.089C496.719 595.505 492.283 595.505 489.536 597.089L482.142 601.366C479.396 602.95 479.449 605.484 482.195 607.068L489.589 611.345C492.336 612.929 496.772 612.929 499.518 611.345L506.912 607.068C509.659 605.537 509.659 602.95 506.912 601.366ZM221.345 460.13L204.128 450.204C201.381 448.621 196.945 448.621 194.199 450.204L186.805 454.481C184.058 456.065 184.111 458.599 186.857 460.183L204.075 470.109C206.821 471.693 211.258 471.693 214.004 470.109L221.398 465.833C224.091 464.302 224.092 461.714 221.345 460.13ZM243.421 472.855L236.027 468.578C233.281 466.994 228.845 466.994 226.098 468.578L218.704 472.855C215.958 474.439 216.011 476.973 218.757 478.557L226.204 482.834C228.95 484.418 233.387 484.418 236.133 482.834L243.527 478.557C246.168 477.026 246.168 474.439 243.421 472.855ZM265.445 485.579L258.051 481.303C255.305 479.719 250.868 479.719 248.122 481.303L240.728 485.579C237.982 487.163 238.034 489.697 240.781 491.281L248.228 495.558C250.974 497.142 255.41 497.142 258.157 495.558L265.551 491.281C268.244 489.75 268.192 487.163 265.445 485.579ZM419.821 574.703L280.075 494.027C277.328 492.443 272.892 492.443 270.146 494.027L262.752 498.304C260.005 499.888 260.058 502.422 262.804 504.006L402.551 584.681C405.298 586.265 409.734 586.265 412.48 584.681L419.874 580.405C422.621 578.874 422.568 576.287 419.821 574.703ZM441.898 587.427L434.504 583.15C431.758 581.566 427.321 581.566 424.575 583.15L417.181 587.427C414.434 589.011 414.487 591.545 417.181 593.129L424.628 597.406C427.374 598.99 431.81 598.99 434.557 597.406L441.951 593.129C444.644 591.598 444.644 589.011 441.898 587.427ZM463.974 600.151L456.527 595.875C453.781 594.291 449.345 594.291 446.598 595.875L439.204 600.151C436.458 601.735 436.511 604.27 439.257 605.854L446.704 610.13C449.45 611.714 453.887 611.714 456.633 610.13L464.027 605.854C466.721 604.322 466.721 601.735 463.974 600.151ZM486.473 613.14L479.026 608.863C476.28 607.279 471.844 607.279 469.097 608.863L461.703 613.14C458.957 614.724 459.01 617.258 461.756 618.842L469.203 623.119C471.949 624.703 476.386 624.703 479.132 623.119L486.526 618.842C489.22 617.311 489.22 614.724 486.473 613.14Z" fill="url(#paint20_linear_4058_1848)"/>
<mask id="mask0_4058_1848" style="mask-type:luminance" maskUnits="userSpaceOnUse" x="277" y="0" width="488" height="529">
<path d="M664.243 529C660.672 529 657.254 528.082 654.092 526.246L287.239 314.524C279.077 309.833 275.201 300.195 277.802 291.169L357.732 14.7879C360.232 6.06815 368.342 0 377.422 0C380.992 0 384.41 0.917876 387.624 2.75362L754.477 214.476C762.638 219.167 766.514 228.805 763.913 237.831L683.983 514.212C681.432 522.932 673.322 529 664.243 529Z" fill="white"/>
</mask>
<g mask="url(#mask0_4058_1848)">
<g opacity="0.2">
<path d="M604.869 598.35C596.503 598.35 588.954 596.667 583.649 593.608L210.675 378.316C208.329 376.99 204.452 374.135 204.452 370.361C204.452 366.384 208.329 361.794 214.807 358.072L426.492 235.893C434.347 231.355 444.804 228.754 455.261 228.754C463.626 228.754 471.175 230.437 476.48 233.496L849.454 448.788C851.75 450.114 855.677 452.97 855.677 456.743C855.677 460.72 851.801 465.31 845.323 469.083L633.637 591.262C625.833 595.801 615.325 598.35 604.869 598.35Z" fill="url(#paint21_linear_4058_1848)"/>
<path d="M466.687 255.882L746.57 417.428C752.181 420.64 751.467 426.3 744.989 430.023L639.912 490.653C633.434 494.376 623.64 494.784 618.029 491.571L338.145 330.026C332.534 326.813 333.249 321.153 339.727 317.431L444.804 256.8C451.333 253.077 461.076 252.67 466.687 255.882Z" fill="url(#paint22_linear_4058_1848)"/>
<path opacity="0.3" d="M633.791 478.874L615.887 468.522C613.591 467.197 609.919 467.197 607.674 468.522C605.379 469.848 605.43 471.939 607.674 473.265L625.629 483.616C627.925 484.942 631.597 484.942 633.841 483.616C636.086 482.341 636.086 480.2 633.791 478.874ZM603.083 461.179L594.616 456.284C592.321 454.958 588.648 454.958 586.353 456.284C584.108 457.61 584.108 459.701 586.404 461.026L594.871 465.922C597.166 467.248 600.839 467.248 603.134 465.922C605.379 464.596 605.379 462.454 603.083 461.179ZM581.813 448.89L573.346 443.995C571.05 442.669 567.377 442.669 565.133 443.995C562.889 445.321 562.889 447.411 565.133 448.737L573.652 453.633C575.947 454.958 579.62 454.958 581.864 453.633C584.108 452.307 584.108 450.216 581.813 448.89ZM560.542 436.601L552.075 431.706C549.78 430.38 546.107 430.38 543.812 431.706C541.567 433.031 541.567 435.122 543.863 436.448L552.33 441.343C554.625 442.669 558.298 442.669 560.542 441.343C562.838 440.068 562.838 437.927 560.542 436.601ZM539.272 424.312L530.804 419.416C528.509 418.09 524.836 418.09 522.592 419.416C520.348 420.742 520.348 422.833 522.592 424.159L531.11 429.054C533.406 430.38 537.078 430.38 539.323 429.054C541.567 427.779 541.567 425.637 539.272 424.312ZM518.001 412.073L509.534 407.178C507.238 405.852 503.566 405.852 501.271 407.178C499.026 408.504 499.026 410.595 501.321 411.92L509.84 416.816C512.135 418.141 515.808 418.141 518.052 416.816C520.297 415.49 520.297 413.399 518.001 412.073ZM496.731 399.784L488.263 394.889C485.968 393.563 482.295 393.563 480.051 394.889C477.807 396.215 477.807 398.305 480.102 399.631L488.62 404.526C490.916 405.852 494.588 405.852 496.833 404.526C499.026 403.252 499.026 401.11 496.731 399.784ZM475.511 387.495L466.993 382.599C464.697 381.274 461.025 381.274 458.78 382.599C456.485 383.925 456.536 386.016 458.78 387.342L467.299 392.237C469.594 393.563 473.267 393.563 475.511 392.237C477.807 390.962 477.756 388.821 475.511 387.495ZM454.241 375.256L445.722 370.361C443.427 369.035 439.754 369.035 437.51 370.361C435.266 371.687 435.266 373.778 437.51 375.103L446.028 379.999C448.324 381.325 451.996 381.325 454.241 379.999C456.485 378.673 456.485 376.531 454.241 375.256ZM432.97 362.967L424.452 358.072C422.156 356.746 418.484 356.746 416.239 358.072C413.944 359.398 413.995 361.488 416.239 362.814L424.758 367.709C427.053 369.035 430.726 369.035 432.97 367.709C435.265 366.384 435.214 364.293 432.97 362.967ZM411.7 350.678L403.232 345.783C400.937 344.457 397.264 344.457 394.969 345.783C392.724 347.108 392.724 349.199 395.02 350.525L403.487 355.42C405.783 356.746 409.455 356.746 411.751 355.42C413.995 354.145 413.944 352.004 411.7 350.678ZM390.429 338.389L381.962 333.493C379.666 332.167 375.994 332.167 373.749 333.493C371.505 334.819 371.505 336.91 373.8 338.236L382.268 343.131C384.563 344.457 388.236 344.457 390.48 343.131C392.725 341.856 392.673 339.714 390.429 338.389ZM368.699 325.895L360.232 321C357.937 319.674 354.264 319.674 352.02 321C349.775 322.326 349.775 324.417 352.071 325.742L360.538 330.638C362.833 331.963 366.506 331.963 368.802 330.638C370.995 329.312 370.995 327.17 368.699 325.895ZM652.919 467.197L645.573 462.964C642.972 461.485 638.789 461.434 636.188 462.964L628.894 467.197C626.343 468.675 626.343 471.123 628.945 472.602L636.29 476.834C638.891 478.313 643.074 478.364 645.675 476.834L652.97 472.602C655.52 471.123 655.52 468.675 652.919 467.197ZM614.917 450.624L607.623 454.856C605.022 456.335 605.073 458.783 607.674 460.262L615.019 464.494C617.621 465.973 621.803 466.024 624.405 464.494L631.699 460.262C634.301 458.783 634.25 456.335 631.699 454.856L624.354 450.624C621.702 449.145 617.519 449.145 614.917 450.624ZM610.378 442.618L603.032 438.386C600.431 436.907 596.248 436.856 593.647 438.386L586.353 442.618C583.751 444.097 583.802 446.545 586.404 448.023L593.749 452.256C596.35 453.734 600.533 453.734 603.134 452.256L610.429 448.023C612.979 446.545 612.979 444.148 610.378 442.618ZM589.107 430.38L581.762 426.147C579.16 424.669 574.978 424.618 572.376 426.147L565.082 430.38C562.481 431.859 562.532 434.306 565.133 435.785L572.478 440.017C575.08 441.496 579.262 441.547 581.864 440.017L589.158 435.785C591.709 434.255 591.709 431.859 589.107 430.38ZM543.863 423.445L551.208 427.677C553.809 429.156 557.992 429.156 560.593 427.677L567.888 423.445C570.438 421.966 570.438 419.518 567.837 418.039L560.491 413.807C557.89 412.328 553.707 412.277 551.106 413.807L543.812 418.039C541.261 419.518 541.261 421.966 543.863 423.445ZM522.592 411.155L529.937 415.388C532.539 416.867 536.721 416.918 539.323 415.388L546.617 411.155C549.218 409.677 549.168 407.229 546.566 405.75L539.221 401.518C536.619 400.039 532.437 399.988 529.835 401.518L522.541 405.75C519.991 407.229 519.991 409.677 522.592 411.155ZM501.321 398.917L508.667 403.15C511.268 404.628 515.451 404.628 518.052 403.15L525.346 398.917C527.948 397.438 527.897 394.991 525.295 393.512L517.95 389.279C515.349 387.801 511.166 387.75 508.565 389.279L501.271 393.512C498.72 394.991 498.72 397.387 501.321 398.917ZM480.051 386.628L487.396 390.86C489.998 392.339 494.18 392.39 496.782 390.86L504.076 386.628C506.677 385.149 506.626 382.701 504.025 381.223L496.68 376.99C494.078 375.511 489.896 375.46 487.294 376.99L480 381.223C477.45 382.701 477.45 385.149 480.051 386.628ZM458.78 374.339L466.126 378.571C468.727 380.05 472.91 380.101 475.511 378.571L482.805 374.339C485.407 372.86 485.356 370.412 482.754 368.933L475.409 364.701C472.808 363.222 468.625 363.171 466.024 364.701L458.729 368.933C456.179 370.412 456.179 372.86 458.78 374.339ZM437.51 362.049L444.855 366.282C447.457 367.76 451.639 367.811 454.241 366.282L461.535 362.049C464.136 360.571 464.085 358.123 461.484 356.644L454.139 352.412C451.537 350.933 447.355 350.882 444.753 352.412L437.459 356.644C434.908 358.174 434.908 360.571 437.51 362.049ZM440.264 344.406L432.919 340.173C430.318 338.695 426.135 338.644 423.534 340.173L416.239 344.406C413.638 345.885 413.689 348.332 416.239 349.811L423.585 354.043C426.186 355.522 430.369 355.573 432.97 354.043L440.264 349.811C442.866 348.332 442.866 345.936 440.264 344.406ZM394.969 337.522L402.314 341.754C404.916 343.233 409.098 343.284 411.7 341.754L418.994 337.522C421.595 336.043 421.544 333.595 418.943 332.116L411.598 327.884C408.996 326.405 404.814 326.354 402.212 327.884L394.918 332.116C392.367 333.595 392.367 336.043 394.969 337.522ZM363.854 319.521L380.635 329.21C383.237 330.689 387.42 330.74 390.021 329.21L397.315 324.977C399.917 323.499 399.866 321.051 397.264 319.572L380.482 309.884C377.881 308.405 373.698 308.354 371.097 309.884L363.803 314.116C361.201 315.646 361.252 318.042 363.854 319.521ZM672.608 455.825L655.826 446.137C653.225 444.658 649.042 444.607 646.441 446.137L639.146 450.369C636.545 451.848 636.596 454.295 639.197 455.774L655.979 465.463C658.581 466.942 662.763 466.942 665.365 465.463L672.659 461.23C675.26 459.752 675.209 457.304 672.608 455.825ZM641.901 438.08L634.556 433.847C631.954 432.368 627.771 432.317 625.17 433.847L617.876 438.08C615.274 439.558 615.325 442.006 617.927 443.485L625.272 447.717C627.873 449.196 632.056 449.247 634.658 447.717L641.952 443.485C644.502 442.006 644.502 439.609 641.901 438.08ZM613.285 421.558C610.684 420.079 606.501 420.028 603.9 421.558L596.605 425.79C594.004 427.269 594.055 429.717 596.656 431.196L604.002 435.428C606.603 436.907 610.786 436.958 613.387 435.428L620.681 431.196C623.232 429.717 623.232 427.269 620.63 425.79L613.285 421.558ZM592.015 409.32C589.413 407.841 585.23 407.79 582.629 409.32L575.335 413.552C572.733 415.031 572.784 417.479 575.335 418.957L582.68 423.19C585.281 424.669 589.464 424.72 592.066 423.19L599.36 418.957C601.961 417.479 601.91 415.031 599.309 413.552L592.015 409.32ZM570.846 410.9L578.14 406.668C580.742 405.189 580.691 402.742 578.089 401.263L570.744 397.03C568.143 395.552 563.96 395.552 561.359 397.03L554.064 401.263C551.463 402.742 551.514 405.189 554.064 406.668L561.409 410.9C564.062 412.379 568.245 412.379 570.846 410.9ZM549.117 398.866L557.329 394.124C559.675 392.798 559.675 390.605 557.329 389.228L549.065 384.486C546.719 383.109 542.944 383.109 540.598 384.486L532.386 389.228C530.039 390.554 530.09 392.747 532.437 394.124L540.7 398.866C542.995 400.192 546.77 400.243 549.117 398.866ZM527.846 386.577L536.058 381.835C538.354 380.509 538.354 378.316 536.007 376.939L527.744 372.197C525.397 370.82 521.623 370.82 519.277 372.197L511.064 376.939C508.718 378.265 508.769 380.458 511.115 381.835L519.379 386.577C521.725 387.954 525.499 387.954 527.846 386.577ZM506.575 374.339L514.788 369.596C517.134 368.27 517.083 366.078 514.737 364.701L506.473 359.959C504.127 358.582 500.352 358.582 498.006 359.959L489.794 364.701C487.447 366.027 487.447 368.219 489.845 369.596L498.108 374.39C500.454 375.664 504.28 375.664 506.575 374.339ZM485.305 362.049L493.517 357.307C495.864 355.981 495.813 353.788 493.517 352.412L485.254 347.618C482.907 346.242 479.133 346.242 476.786 347.618L468.574 352.361C466.228 353.686 466.279 355.879 468.625 357.256L476.888 361.998C479.184 363.375 483.009 363.375 485.305 362.049ZM464.034 349.76L472.247 345.018C474.593 343.692 474.542 341.499 472.196 340.122L463.932 335.38C461.586 334.003 457.811 334.003 455.465 335.38L447.252 340.122C444.906 341.448 444.906 343.641 447.304 345.018L455.567 349.76C457.913 351.137 461.739 351.137 464.034 349.76ZM434.245 323.091L426.033 327.833C423.687 329.159 423.738 331.352 426.084 332.728L434.347 337.471C436.694 338.848 440.468 338.848 442.815 337.471L451.027 332.728C453.374 331.403 453.323 329.21 450.976 327.833L442.713 323.091C440.366 321.765 436.541 321.765 434.245 323.091ZM412.975 310.801L404.763 315.544C402.416 316.87 402.416 319.062 404.763 320.439L413.026 325.232C415.372 326.609 419.147 326.609 421.493 325.232L429.706 320.49C432.052 319.164 432.001 316.972 429.655 315.595L421.391 310.852C419.096 309.476 415.321 309.476 412.975 310.801ZM383.084 307.895L391.347 312.637C393.694 314.014 397.468 314.014 399.815 312.637L408.027 307.895C410.373 306.569 410.322 304.376 407.976 303L399.713 298.206C397.366 296.829 393.592 296.829 391.245 298.206L383.033 302.949C380.737 304.376 380.738 306.569 383.084 307.895ZM692.756 444.709L666.079 429.309C663.732 427.932 659.958 427.932 657.611 429.309L649.399 434.051C647.053 435.377 647.104 437.57 649.45 438.947L676.128 454.346C678.474 455.723 682.249 455.723 684.595 454.346L692.807 449.604C695.154 448.227 695.103 446.086 692.756 444.709ZM653.123 421.813L644.859 417.071C642.513 415.694 638.738 415.694 636.392 417.071L628.18 421.813C625.833 423.139 625.833 425.331 628.18 426.708L636.443 431.451C638.789 432.827 642.564 432.827 644.91 431.451L653.123 426.708C655.469 425.331 655.469 423.139 653.123 421.813ZM631.852 409.524L623.589 404.73C621.242 403.354 617.468 403.354 615.121 404.73L606.909 409.473C604.563 410.798 604.563 412.991 606.909 414.368L615.172 419.11C617.519 420.487 621.293 420.487 623.64 419.11L631.852 414.368C634.199 413.093 634.199 410.9 631.852 409.524ZM610.582 397.234L602.318 392.441C599.972 391.115 596.197 391.064 593.851 392.441L585.638 397.183C583.292 398.509 583.292 400.702 585.69 402.079L593.953 406.872C596.299 408.249 600.074 408.249 602.42 406.872L610.633 402.13C612.928 400.804 612.928 398.611 610.582 397.234ZM572.58 380.203L564.368 384.945C562.022 386.271 562.073 388.464 564.368 389.84L572.631 394.583C574.978 395.96 578.752 395.96 581.099 394.583L589.311 389.84C591.657 388.515 591.657 386.322 589.311 384.945L581.048 380.152C578.701 378.877 574.927 378.877 572.58 380.203ZM551.31 367.913L543.097 372.656C540.751 373.982 540.802 376.174 543.148 377.551L551.412 382.293C553.758 383.67 557.533 383.67 559.879 382.293L568.092 377.551C570.438 376.225 570.387 374.033 568.041 372.656L559.777 367.913C557.431 366.588 553.656 366.588 551.31 367.913ZM530.039 355.624L521.827 360.367C519.481 361.692 519.532 363.885 521.878 365.262L530.141 370.004C532.488 371.381 536.262 371.381 538.609 370.004L546.821 365.262C549.168 363.936 549.116 361.743 546.77 360.367L538.507 355.573C536.16 354.298 532.386 354.298 530.039 355.624ZM508.769 343.386L500.556 348.128C498.21 349.454 498.261 351.647 500.607 353.024L508.871 357.766C511.217 359.143 514.992 359.143 517.338 357.766L525.55 353.024C527.897 351.698 527.846 349.505 525.55 348.128L517.287 343.386C514.89 342.06 511.115 342.009 508.769 343.386ZM487.498 331.097L479.286 335.839C476.99 337.165 476.99 339.357 479.337 340.734L487.6 345.528C489.947 346.904 493.721 346.904 496.068 345.528L504.28 340.785C506.626 339.459 506.575 337.267 504.229 335.89L495.966 331.148C493.619 329.771 489.845 329.771 487.498 331.097ZM466.228 318.807L458.015 323.55C455.669 324.875 455.72 327.068 458.066 328.445L466.33 333.187C468.676 334.564 472.451 334.564 474.797 333.187L483.009 328.445C485.356 327.119 485.356 324.926 482.958 323.55L474.695 318.756C472.349 317.482 468.574 317.482 466.228 318.807ZM461.688 311.311L453.425 306.569C451.078 305.192 447.303 305.192 444.957 306.569L436.745 311.311C434.398 312.637 434.398 314.83 436.796 316.207L445.059 320.949C447.406 322.326 451.18 322.326 453.527 320.949L461.739 316.207C464.034 314.881 464.034 312.688 461.688 311.311ZM402.773 296.523L423.789 308.66C426.135 310.037 429.91 310.037 432.256 308.66L440.468 303.917C442.815 302.592 442.764 300.399 440.417 299.022L419.402 286.886C417.056 285.509 413.281 285.509 410.934 286.886L402.722 291.628C400.427 293.005 400.427 295.198 402.773 296.523ZM712.395 432.725L674.546 410.9C671.894 409.371 667.609 409.371 664.957 410.9L657.867 415.031C655.214 416.561 655.265 419.008 657.867 420.538L695.715 442.363C698.367 443.893 702.652 443.893 705.304 442.363L712.395 438.284C715.047 436.754 715.047 434.255 712.395 432.725ZM660.468 402.742L653.327 398.611C650.674 397.081 646.39 397.081 643.788 398.611L636.698 402.691C634.046 404.22 634.097 406.668 636.698 408.198L643.839 412.328C646.492 413.858 650.776 413.858 653.429 412.328L660.57 408.198C663.12 406.77 663.12 404.322 660.468 402.742ZM639.197 390.503L632.056 386.373C629.404 384.843 625.119 384.843 622.467 386.373L615.325 390.452C612.673 391.982 612.724 394.43 615.376 395.96L622.518 400.09C625.17 401.62 629.455 401.62 632.107 400.09L639.248 395.96C641.85 394.481 641.85 392.033 639.197 390.503ZM617.927 378.214L610.786 374.084C608.133 372.554 603.849 372.554 601.196 374.084L594.055 378.214C591.402 379.744 591.454 382.191 594.106 383.721L601.247 387.852C603.9 389.381 608.184 389.381 610.837 387.852L617.927 383.772C620.579 382.191 620.579 379.744 617.927 378.214ZM596.656 365.925L589.515 361.794C586.863 360.265 582.578 360.265 579.926 361.794L572.784 365.925C570.132 367.455 570.183 369.902 572.835 371.432L579.977 375.562C582.629 377.092 586.914 377.092 589.566 375.562L596.656 371.432C599.309 369.953 599.309 367.455 596.656 365.925ZM575.386 353.686L568.245 349.556C565.592 348.026 561.307 348.026 558.655 349.556L551.565 353.686C548.912 355.216 548.963 357.664 551.616 359.194L558.757 363.324C561.41 364.854 565.694 364.854 568.296 363.324L575.437 359.194C578.038 357.664 578.038 355.216 575.386 353.686ZM554.115 341.397L546.974 337.267C544.322 335.737 540.037 335.737 537.385 337.267L530.243 341.397C527.591 342.927 527.642 345.375 530.294 346.904L537.435 351.035C540.088 352.565 544.373 352.565 547.025 351.035L554.115 346.955C556.768 345.375 556.768 342.927 554.115 341.397ZM532.845 329.108L525.704 324.977C523.051 323.448 518.766 323.448 516.165 324.977L509.075 329.057C506.422 330.587 506.473 333.034 509.126 334.564L516.267 338.695C518.919 340.224 523.204 340.224 525.806 338.695L532.947 334.615C535.497 333.136 535.497 330.638 532.845 329.108ZM511.574 316.819L504.433 312.688C501.781 311.158 497.496 311.158 494.843 312.688L487.753 316.819C485.101 318.348 485.152 320.796 487.804 322.326L494.945 326.456C497.598 327.986 501.883 327.986 504.535 326.456L511.676 322.326C514.227 320.847 514.227 318.348 511.574 316.819ZM490.304 304.58L483.111 300.45C480.459 298.92 476.174 298.92 473.573 300.45L466.483 304.58C463.83 306.11 463.881 308.558 466.534 310.088L473.675 314.218C476.327 315.748 480.612 315.748 483.265 314.218L490.355 310.088C492.956 308.558 492.956 306.11 490.304 304.58ZM469.033 292.291L461.841 288.161C459.189 286.631 454.904 286.631 452.302 288.161L445.161 292.291C442.509 293.821 442.56 296.268 445.212 297.798L452.353 301.929C455.006 303.458 459.291 303.458 461.892 301.929L469.033 297.849C471.686 296.268 471.686 293.821 469.033 292.291ZM423.483 285.203L430.624 289.333C433.276 290.863 437.561 290.863 440.162 289.333L447.304 285.254C449.956 283.724 449.905 281.277 447.252 279.747L440.111 275.616C437.459 274.087 433.174 274.087 430.522 275.616L423.432 279.747C420.83 281.226 420.83 283.673 423.483 285.203ZM698.826 421.405L715.404 430.992C718.057 432.521 722.341 432.521 724.994 430.992L732.084 426.861C734.736 425.331 734.685 422.884 732.033 421.354L715.455 411.767C712.803 410.238 708.518 410.238 705.916 411.767L698.826 415.847C696.174 417.428 696.174 419.875 698.826 421.405ZM677.556 409.116L684.697 413.246C687.349 414.776 691.634 414.776 694.287 413.246L701.377 409.116C704.029 407.586 703.978 405.138 701.326 403.608L694.185 399.478C691.532 397.948 687.247 397.948 684.595 399.478L677.454 403.608C674.903 405.138 674.954 407.586 677.556 409.116ZM656.285 396.877L663.426 401.008C666.079 402.538 670.364 402.538 672.965 401.008L680.055 396.877C682.708 395.348 682.657 392.9 680.004 391.37L672.863 387.24C670.211 385.71 665.926 385.71 663.324 387.24L656.183 391.37C653.633 392.849 653.684 395.348 656.285 396.877ZM507.442 310.954L642.207 388.719C644.859 390.248 649.144 390.248 651.746 388.719L658.836 384.588C661.488 383.058 661.437 380.611 658.785 379.081L524.071 301.317C521.419 299.787 517.134 299.787 514.533 301.317L507.392 305.447C504.79 306.926 504.79 309.425 507.442 310.954ZM486.172 298.665L493.364 302.796C496.017 304.325 500.301 304.325 502.903 302.796L509.993 298.665C512.645 297.135 512.594 294.688 509.942 293.158L502.801 289.028C500.148 287.498 495.864 287.498 493.262 289.028L486.121 293.107C483.52 294.637 483.52 297.135 486.172 298.665ZM464.901 286.376L472.043 290.506C474.695 292.036 478.98 292.036 481.632 290.506L488.722 286.427C491.375 284.897 491.324 282.449 488.671 280.92L481.53 276.789C478.878 275.259 474.593 275.259 471.992 276.789L464.85 280.869C462.249 282.398 462.249 284.846 464.901 286.376ZM443.172 273.832L450.313 277.962C452.965 279.492 457.25 279.492 459.903 277.962L467.044 273.832C469.696 272.302 469.645 269.854 466.993 268.324L459.852 264.194C457.199 262.664 452.914 262.664 450.262 264.194L443.121 268.273C440.519 269.854 440.519 272.302 443.172 273.832Z" fill="url(#paint23_linear_4058_1848)"/>
</g>
</g>
<path d="M445.61 205.59L436.684 200.152L429.237 206.435L430.716 218.156L439.642 223.594L447.089 217.311L445.61 205.59ZM471.7 126.815L462.775 121.377L455.328 127.66L456.807 139.381L465.732 144.819L473.179 138.536L471.7 126.815ZM474.394 118.579L481.841 112.296L480.362 100.574L471.436 95.1361L463.989 101.419L465.468 113.14L474.394 118.579ZM454.271 179.349L445.346 173.911L437.899 180.194L439.378 191.915L448.304 197.353L455.75 191.07L454.271 179.349ZM462.986 153.056L454.06 147.618L446.613 153.901L448.092 165.622L457.018 171.06L464.465 164.777L462.986 153.056ZM475.767 145.506L468.32 151.789L469.799 163.51L478.725 168.948L486.171 162.665L484.693 150.891L475.767 145.506ZM484.481 119.212L477.034 125.495L478.513 137.216L487.439 142.655L494.886 136.372L493.407 124.65L484.481 119.212ZM467.105 171.746L459.659 178.029L461.137 189.751L470.063 195.189L477.51 188.906L476.031 177.185L467.105 171.746ZM458.391 197.987L450.944 204.27L452.423 215.991L461.349 221.429L468.795 215.146L467.317 203.372L458.391 197.987ZM449.677 224.281L442.23 230.564L443.709 242.285L452.634 247.723L460.081 241.44L458.602 229.719L449.677 224.281ZM501.382 166.625L508.829 160.342L507.35 148.621L498.424 143.182L490.977 149.465L492.456 161.187L501.382 166.625ZM492.668 192.918L500.114 186.635L498.635 174.914L489.71 169.476L482.263 175.759L483.742 187.48L492.668 192.918ZM510.043 140.384L517.49 134.101L516.012 122.38L507.086 116.942L499.639 123.225L501.118 134.946L510.043 140.384ZM484.006 219.159L491.453 212.876L489.974 201.155L481.048 195.717L473.602 202L475.08 213.721L484.006 219.159ZM475.292 245.4L482.738 239.117L481.26 227.396L472.334 221.957L464.887 228.24L466.366 239.962L475.292 245.4ZM479.411 264.09L488.337 269.529L495.784 263.246L494.305 251.524L485.379 246.086L477.932 252.369L479.411 264.09ZM496.787 211.556L505.713 216.994L513.159 210.711L511.681 198.99L502.755 193.552L495.308 199.835L496.787 211.556ZM488.073 237.85L496.998 243.288L504.445 237.005L502.966 225.284L494.041 219.845L486.594 226.128L488.073 237.85ZM511.469 167.258L504.023 173.541L505.501 185.263L514.427 190.701L521.874 184.418L520.395 172.697L511.469 167.258ZM514.163 159.075L523.089 164.513L530.535 158.23L529.057 146.509L520.131 141.071L512.684 147.354L514.163 159.075ZM533.493 164.566L526.046 170.849L527.525 182.57L536.451 188.008L543.898 181.725L542.419 170.004L533.493 164.566ZM524.779 190.806L517.332 197.089L518.811 208.863L527.736 214.302L535.183 208.019L533.704 196.297L524.779 190.806ZM501.435 261.398L510.36 266.836L517.807 260.553L516.328 248.832L507.403 243.393L499.956 249.676L501.435 261.398ZM545.112 161.82L552.559 155.537L551.08 143.816L542.155 138.378L534.708 144.661L536.187 156.382L545.112 161.82ZM510.096 235.104L519.022 240.542L526.469 234.259L524.99 222.538L516.064 217.1L508.617 223.383L510.096 235.104ZM539.514 258.388L538.035 246.667L529.109 241.229L521.663 247.512L523.141 259.233L532.067 264.671L539.514 258.388ZM514.427 285.474L523.353 290.912L530.8 284.629L529.321 272.908L520.395 267.469L512.948 273.752L514.427 285.474ZM549.232 180.458L558.157 185.896L565.604 179.613L564.125 167.892L555.2 162.454L547.753 168.737L549.232 180.458ZM546.538 188.695L539.091 194.978L540.57 206.699L549.496 212.137L556.943 205.854L555.464 194.133L546.538 188.695ZM537.824 214.935L530.377 221.218L531.856 232.939L540.781 238.378L548.228 232.095L546.749 220.373L537.824 214.935ZM551.608 270.373L542.683 264.935L535.236 271.218L536.715 282.939L545.64 288.378L553.087 282.095L551.608 270.373ZM580.445 183.362L587.892 177.079L586.413 165.358L577.487 159.92L570.041 166.203L571.519 177.924L580.445 183.362ZM560.323 244.08L551.397 238.642L543.95 244.925L545.429 256.646L554.355 262.084L561.802 255.801L560.323 244.08ZM568.773 186.16L561.326 192.443L562.805 204.164L571.731 209.603L579.177 203.32L577.699 191.598L568.773 186.16ZM568.984 217.839L560.059 212.401L552.612 218.684L554.091 230.405L563.016 235.843L570.463 229.56L568.984 217.839ZM584.565 202.053L593.49 207.491L600.937 201.208L599.458 189.487L590.532 184.048L583.086 190.331L584.565 202.053ZM590.744 215.674L581.818 210.236L574.371 216.519L575.85 228.24L584.776 233.679L592.223 227.396L590.744 215.674ZM582.029 241.968L573.104 236.53L565.657 242.813L567.136 254.534L576.061 259.972L583.508 253.689L582.029 241.968ZM564.653 294.449L555.728 289.011L548.281 295.294L549.76 307.015L558.686 312.454L566.132 306.171L564.653 294.449ZM573.368 268.209L564.442 262.77L556.995 269.053L558.474 280.775L567.4 286.213L574.847 279.93L573.368 268.209ZM585.779 291.229L576.854 285.79L569.407 292.073L570.886 303.795L579.811 309.233L587.258 302.95L585.779 291.229ZM594.494 264.988L585.568 259.55L578.121 265.833L579.6 277.554L588.526 282.992L595.972 276.709L594.494 264.988ZM614.616 204.217L622.063 197.934L620.584 186.213L611.658 180.775L604.211 187.058L605.69 198.779L614.616 204.217ZM603.208 238.694L594.282 233.256L586.835 239.539L588.314 251.26L597.24 256.699L604.687 250.416L603.208 238.694ZM611.87 212.454L602.944 207.016L595.497 213.299L596.976 225.02L605.902 230.458L613.348 224.175L611.87 212.454ZM607.327 257.385L599.881 263.668L601.359 275.389L610.285 280.827L617.732 274.544L616.253 262.823L607.327 257.385ZM624.703 204.851L617.257 211.134L618.735 222.855L627.661 228.293L635.108 222.01L633.629 210.289L624.703 204.851ZM615.989 231.092L608.542 237.374L610.021 249.096L618.947 254.534L626.394 248.251L624.915 236.53L615.989 231.092ZM589.899 309.866L582.452 316.149L583.931 327.871L592.856 333.309L600.303 327.026L598.824 315.305L589.899 309.866ZM598.613 283.626L591.166 289.909L592.645 301.63L601.571 307.068L609.018 300.785L607.539 289.064L598.613 283.626ZM650.318 226.023L657.765 219.74L656.286 208.019L647.361 202.58L639.914 208.863L641.393 220.585L650.318 226.023ZM624.175 304.798L631.622 298.515L630.143 286.794L621.218 281.355L613.771 287.638L615.25 299.36L624.175 304.798ZM632.89 278.557L640.336 272.274L638.858 260.553L629.932 255.115L622.485 261.398L623.964 273.119L632.89 278.557ZM641.604 252.264L649.051 245.981L647.572 234.259L638.646 228.768L631.2 235.051L632.678 246.773L641.604 252.264ZM615.514 331.039L622.961 324.756L621.482 313.034L612.556 307.596L605.109 313.879L606.588 325.6L615.514 331.039ZM651.692 252.897L644.245 259.18L645.723 270.901L654.649 276.34L662.096 270.057L660.617 258.335L651.692 252.897ZM637.009 297.195L645.935 302.633L653.382 296.35L651.903 284.629L642.977 279.191L635.53 285.474L637.009 297.195ZM628.295 323.488L637.22 328.927L644.667 322.644L643.189 310.922L634.263 305.484L626.816 311.767L628.295 323.488ZM654.385 244.661L663.311 250.099L670.758 243.816L669.279 232.095L660.353 226.656L652.906 232.939L654.385 244.661ZM619.633 349.729L628.559 355.167L636.006 348.884L634.527 337.163L625.601 331.725L618.154 338.008L619.633 349.729ZM673.715 250.204L666.268 256.487L667.747 268.209L676.673 273.647L684.12 267.364L682.641 255.643L673.715 250.204ZM685.334 247.406L692.781 241.123L691.302 229.402L682.377 223.964L674.93 230.247L676.409 241.968L685.334 247.406ZM675.405 293.657L673.926 281.936L665.001 276.498L657.554 282.781L659.033 294.502L667.958 299.94L675.405 293.657ZM641.604 347.036L650.53 352.475L657.977 346.192L656.498 334.47L647.572 329.032L640.125 335.315L641.604 347.036ZM650.318 320.743L659.244 326.181L666.691 319.898L665.212 308.177L656.286 302.739L648.84 309.022L650.318 320.743ZM695.633 279.771L686.707 274.333L679.261 280.616L680.739 292.337L689.665 297.776L697.112 291.493L695.633 279.771ZM669.543 358.546L660.617 353.108L653.17 359.391L654.649 371.112L663.575 376.551L671.022 370.268L669.543 358.546ZM686.972 306.012L678.046 300.574L670.599 306.857L672.078 318.578L681.004 324.016L688.45 317.733L686.972 306.012ZM678.257 332.253L669.332 326.815L661.885 333.098L663.364 344.819L672.289 350.257L679.736 343.974L678.257 332.253ZM689.454 266.097L698.38 271.535L705.826 265.252L704.347 253.531L695.422 248.093L687.975 254.376L689.454 266.097ZM691.83 356.012L682.905 350.574L675.458 356.857L676.937 368.578L685.862 374.016L693.309 367.733L691.83 356.012ZM709.259 303.478L700.334 298.04L692.887 304.323L694.366 316.044L703.291 321.482L710.738 315.199L709.259 303.478ZM700.545 329.719L691.619 324.28L684.172 330.563L685.651 342.285L694.577 347.723L702.024 341.44L700.545 329.719ZM720.667 269.001L728.114 262.718L726.635 250.996L717.709 245.558L710.263 251.841L711.741 263.615L720.667 269.001ZM717.921 277.184L708.995 271.746L701.548 278.029L703.027 289.75L711.953 295.189L719.4 288.906L717.921 277.184ZM713.326 322.116L705.879 328.399L707.358 340.12L716.284 345.558L723.73 339.275L722.252 327.554L713.326 322.116ZM724.787 287.638L733.712 293.077L741.159 286.794L739.68 275.072L730.755 269.634L723.308 275.917L724.787 287.638ZM722.04 295.875L714.593 302.158L716.072 313.879L724.998 319.317L732.445 313.034L730.966 301.313L722.04 295.875ZM695.95 374.65L688.503 380.933L689.982 392.654L698.908 398.092L706.354 391.809L704.876 380.088L695.95 374.65ZM704.664 348.409L697.217 354.692L698.696 366.413L707.622 371.852L715.069 365.569L713.59 353.847L704.664 348.409ZM404.732 328.874L412.178 322.591L410.7 310.87L401.774 305.431L394.327 311.714L395.806 323.436L404.732 328.874ZM402.038 337.11L393.113 331.672L385.666 337.955L387.144 349.676L396.07 355.114L403.517 348.832L402.038 337.11ZM436.843 232.042L427.917 226.604L420.47 232.887L421.949 244.608L430.875 250.046L438.322 243.763L436.843 232.042ZM419.414 284.576L410.488 279.138L403.042 285.421L404.52 297.142L413.446 302.58L420.893 296.297L419.414 284.576ZM428.128 258.335L419.203 252.897L411.756 259.18L413.235 270.901L422.16 276.34L429.607 270.057L428.128 258.335ZM423.534 303.214L416.087 309.497L417.565 321.218L426.491 326.656L433.938 320.373L432.459 308.652L423.534 303.214ZM432.248 276.973L424.801 283.256L426.28 294.977L435.206 300.416L442.652 294.133L441.174 282.411L432.248 276.973ZM406.158 355.748L398.711 362.031L400.19 373.752L409.115 379.19L416.562 372.908L415.083 361.133L406.158 355.748ZM440.91 250.732L433.463 257.015L434.941 268.737L443.867 274.175L451.314 267.892L449.835 256.118L440.91 250.732ZM414.819 329.507L407.372 335.79L408.851 347.512L417.777 352.95L425.224 346.667L423.745 334.946L414.819 329.507ZM466.524 271.905L473.971 265.622L472.492 253.9L463.567 248.462L456.12 254.745L457.599 266.466L466.524 271.905ZM457.81 298.145L465.257 291.862L463.778 280.141L454.852 274.703L447.406 280.986L448.884 292.707L457.81 298.145ZM449.096 324.386L456.542 318.103L455.064 306.382L446.138 300.944L438.691 307.227L440.17 318.948L449.096 324.386ZM440.434 350.679L447.881 344.396L446.402 332.675L437.477 327.237L430.03 333.52L431.509 345.241L440.434 350.679ZM437.688 358.863L428.762 353.425L421.315 359.708L422.794 371.429L431.72 376.867L439.167 370.584L437.688 358.863ZM461.93 316.783L470.855 322.221L478.302 315.938L476.823 304.217L467.898 298.779L460.451 305.062L461.93 316.783ZM470.644 290.542L479.57 295.98L487.016 289.698L485.538 277.976L476.612 272.538L469.165 278.821L470.644 290.542ZM444.554 369.317L453.479 374.755L460.926 368.472L459.447 356.751L450.522 351.313L443.075 357.596L444.554 369.317ZM453.215 343.077L462.141 348.515L469.588 342.232L468.109 330.511L459.183 325.072L451.736 331.355L453.215 343.077ZM441.807 377.554L434.36 383.837L435.839 395.558L444.765 400.996L452.212 394.713L450.733 382.992L441.807 377.554ZM368.976 180.511L376.423 174.228L374.944 162.507L366.019 157.068L358.572 163.351L360.051 175.073L368.976 180.511ZM377.638 154.217L385.085 147.934L383.606 136.213L374.68 130.775L367.233 137.058L368.712 148.779L377.638 154.217ZM403.728 75.4424L411.175 69.1594L409.696 57.4382L400.771 52L393.324 58.283L394.803 70.0042L403.728 75.4424ZM386.352 127.977L393.799 121.694L392.32 109.972L383.395 104.534L375.948 110.817L377.427 122.538L386.352 127.977ZM395.067 101.736L402.513 95.4529L401.035 83.7317L392.109 78.2935L384.662 84.5765L386.141 96.2977L395.067 101.736ZM387.725 154.851L380.279 161.134L381.757 172.855L390.683 178.293L398.13 172.01L396.651 160.289L387.725 154.851ZM396.44 128.61L388.993 134.893L390.472 146.614L399.397 152.053L406.844 145.77L405.365 134.048L396.44 128.61ZM413.868 76.076L406.422 82.359L407.901 94.0802L416.826 99.5184L424.273 93.2354L422.794 81.5142L413.868 76.076ZM405.154 102.369L397.707 108.652L399.186 120.374L408.112 125.812L415.559 119.529L414.08 107.808L405.154 102.369ZM379.064 181.144L371.617 187.427L373.096 199.149L382.021 204.587L389.468 198.304L387.989 186.583L379.064 181.144ZM430.716 123.489L438.163 117.206L436.684 105.485L427.759 100.046L420.312 106.329L421.791 118.051L430.716 123.489ZM404.626 202.264L412.073 195.981L410.594 184.26L401.668 178.821L394.222 185.104L395.7 196.825L404.626 202.264ZM422.055 149.782L429.502 143.499L428.023 131.778L419.097 126.34L411.65 132.623L413.129 144.344L422.055 149.782ZM439.431 97.2481L446.877 90.9651L445.399 79.2439L436.473 73.8057L429.026 80.0886L430.505 91.8098L439.431 97.2481ZM413.34 176.023L420.787 169.74L419.308 158.019L410.383 152.581L402.936 158.864L404.415 170.585L413.34 176.023ZM417.46 194.714L426.386 200.152L433.832 193.869L432.353 182.095L423.428 176.657L415.981 182.94L417.46 194.714ZM451.208 141.335L449.729 129.613L440.804 124.175L433.357 130.458L434.836 142.179L443.761 147.618L451.208 141.335ZM408.745 220.954L417.671 226.392L425.118 220.109L423.639 208.388L414.714 202.897L407.267 209.18L408.745 220.954ZM443.55 115.886L452.476 121.324L459.923 115.041L458.444 103.32L449.518 97.8816L442.071 104.165L443.55 115.886ZM426.121 168.42L435.047 173.858L442.494 167.575L441.015 155.854L432.089 150.416L424.643 156.699L426.121 168.42ZM334.119 285.738L341.566 279.455L340.087 267.733L331.161 262.295L323.714 268.578L325.193 280.299L334.119 285.738ZM360.209 206.963L367.656 200.68L366.177 188.959L357.251 183.52L349.805 189.803L351.283 201.525L360.209 206.963ZM342.78 259.444L350.227 253.161L348.748 241.44L339.823 236.002L332.376 242.285L333.855 254.006L342.78 259.444ZM331.372 293.974L322.447 288.536L315 294.819L316.479 306.54L325.404 311.978L332.851 305.695L331.372 293.974ZM351.495 233.203L358.942 226.92L357.463 215.199L348.537 209.761L341.09 216.044L342.569 227.765L351.495 233.203ZM344.206 286.371L336.759 292.654L338.238 304.375L347.164 309.814L354.611 303.531L353.132 291.809L344.206 286.371ZM335.492 312.612L328.045 318.895L329.524 330.616L338.45 336.054L345.896 329.771L344.418 318.05L335.492 312.612ZM361.582 233.837L354.135 240.12L355.614 251.841L364.54 257.279L371.987 250.996L370.508 239.275L361.582 233.837ZM370.297 207.596L362.85 213.879L364.329 225.6L373.254 231.039L380.701 224.756L379.222 213.035L370.297 207.596ZM352.868 260.078L345.421 266.361L346.9 278.082L355.826 283.52L363.272 277.237L361.794 265.516L352.868 260.078ZM367.075 315.727L358.149 310.289L350.703 316.572L352.181 328.293L361.107 333.731L368.554 327.448L367.075 315.727ZM369.768 307.543L377.215 301.26L375.737 289.539L366.811 284.101L359.364 290.384L360.843 302.105L369.768 307.543ZM395.859 228.716L403.306 222.433L401.827 210.711L392.901 205.273L385.454 211.556L386.933 223.277L395.859 228.716ZM387.197 255.009L394.644 248.726L393.165 237.005L384.24 231.567L376.793 237.85L378.272 249.571L387.197 255.009ZM378.483 281.25L385.93 274.967L384.451 263.246L375.525 257.807L368.078 264.09L369.557 275.812L378.483 281.25ZM399.978 247.406L408.904 252.844L416.351 246.561L414.872 234.84L405.946 229.402L398.5 235.685L399.978 247.406ZM373.888 326.181L382.814 331.619L390.26 325.336L388.782 313.615L379.856 308.177L372.409 314.46L373.888 326.181ZM391.264 273.647L400.19 279.085L407.636 272.802L406.158 261.081L397.232 255.643L389.785 261.926L391.264 273.647ZM382.602 299.94L391.528 305.379L398.975 299.096L397.496 287.374L388.57 281.936L381.124 288.219L382.602 299.94ZM371.142 334.418L363.695 340.701L365.174 352.475L374.099 357.913L381.546 351.63L380.067 339.909L371.142 334.418ZM475.45 372.063L482.897 365.78L481.418 354.059L472.492 348.62L465.046 354.903L466.524 366.624L475.45 372.063ZM472.756 380.299L463.831 374.861L456.384 381.144L457.863 392.865L466.789 398.303L474.235 392.02L472.756 380.299ZM475.239 340.384L484.164 345.822L491.611 339.539L490.132 327.818L481.207 322.38L473.76 328.663L475.239 340.384ZM483.953 314.09L492.879 319.529L500.326 313.246L498.847 301.524L489.921 296.086L482.474 302.369L483.953 314.09ZM492.668 287.85L501.593 293.288L509.04 287.005L507.561 275.284L498.635 269.845L491.189 276.128L492.668 287.85ZM496.998 338.219L505.924 343.657L513.371 337.374L511.892 325.653L502.966 320.215L495.52 326.445L496.998 338.219ZM476.876 398.937L469.429 405.22L470.908 416.941L479.834 422.379L487.28 416.096L485.802 404.375L476.876 398.937ZM505.66 311.978L514.586 317.417L522.032 311.134L520.553 299.412L511.628 293.974L504.181 300.257L505.66 311.978ZM488.495 396.191L495.942 389.909L494.463 378.187L485.538 372.749L478.091 379.032L479.57 390.753L488.495 396.191ZM497.21 369.898L504.656 363.615L503.178 351.894L494.252 346.456L486.805 352.739L488.284 364.46L497.21 369.898ZM519.497 367.364L526.944 361.081L525.465 349.359L516.54 343.921L509.093 350.204L510.572 361.925L519.497 367.364ZM508.089 401.841L499.164 396.403L491.717 402.686L493.196 414.407L502.121 419.845L509.568 413.562L508.089 401.841ZM528.212 341.123L535.658 334.84L534.18 323.119L525.254 317.681L517.807 323.964L519.286 335.685L528.212 341.123ZM510.783 393.657L518.23 387.374L516.751 375.653L507.825 370.215L500.378 376.498L501.857 388.219L510.783 393.657ZM542.841 296.825L533.916 291.387L526.469 297.67L527.947 309.391L536.873 314.829L544.32 308.546L542.841 296.825ZM512.156 420.531L504.709 426.814L506.188 438.588L515.114 444.027L522.56 437.744L521.082 426.022L512.156 420.531ZM532.542 391.492L539.989 385.209L538.51 373.488L529.585 368.05L522.138 374.333L523.617 386.054L532.542 391.492ZM555.886 320.901L546.961 315.463L539.514 321.746L540.993 333.467L549.918 338.905L557.365 332.622L555.886 320.901ZM523.828 417.733L531.275 411.45L529.796 399.729L520.87 394.291L513.424 400.574L514.902 412.295L523.828 417.733ZM547.172 347.195L538.299 341.757L530.852 348.04L532.331 359.761L541.257 365.199L548.704 358.916L547.172 347.195ZM542.26 422.696L533.335 417.258L525.888 423.541L527.367 435.262L536.292 440.7L543.739 434.417L542.26 422.696ZM544.954 414.512L552.401 408.229L550.922 396.508L541.996 391.07L534.549 397.353L536.028 409.127L544.954 414.512ZM559.636 370.215L550.711 364.777L543.264 371.06L544.742 382.781L553.668 388.219L561.115 381.936L559.636 370.215ZM568.35 343.921L559.425 338.483L551.978 344.766L553.457 356.487L562.383 361.925L569.829 355.642L568.35 343.921ZM577.065 317.681L568.139 312.242L560.692 318.525L562.171 330.247L571.097 335.685L578.544 329.402L577.065 317.681ZM546.38 441.387L538.933 447.67L540.412 459.391L549.337 464.829L556.784 458.546L555.305 446.825L546.38 441.387ZM555.041 415.146L547.595 421.429L549.073 433.15L557.999 438.588L565.446 432.305L563.967 420.584L555.041 415.146ZM563.756 388.853L556.309 395.136L557.788 406.857L566.713 412.295L574.16 406.012L572.681 394.291L563.756 388.853ZM572.47 362.612L565.023 368.895L566.502 380.616L575.428 386.054L582.874 379.771L581.396 368.05L572.47 362.612ZM581.132 336.371L573.685 342.654L575.164 354.375L584.089 359.814L591.536 353.531L590.057 341.809L581.132 336.371ZM606.747 357.49L614.193 351.207L612.715 339.433L603.789 333.995L596.342 340.278L597.821 351.999L606.747 357.49ZM598.032 383.784L605.479 377.501L604 365.78L595.075 360.342L587.628 366.624L589.107 378.346L598.032 383.784ZM589.318 410.025L596.765 403.742L595.286 392.02L586.36 386.582L578.913 392.865L580.392 404.586L589.318 410.025ZM580.656 436.318L588.103 430.035L586.624 418.314L577.699 412.876L570.252 419.159L571.731 430.88L580.656 436.318ZM577.91 444.502L568.984 439.064L561.537 445.347L563.016 457.068L571.942 462.506L579.389 456.223L577.91 444.502ZM593.437 428.715L602.363 434.153L609.81 427.87L608.331 416.149L599.405 410.711L591.959 416.994L593.437 428.715ZM610.866 376.181L619.792 381.619L627.238 375.336L625.76 363.615L616.834 358.177L609.387 364.46L610.866 376.181ZM602.152 402.422L611.077 407.86L618.524 401.577L617.045 389.856L608.12 384.417L600.673 390.701L602.152 402.422ZM584.776 454.956L593.701 460.394L601.148 454.111L599.669 442.39L590.744 436.952L583.297 443.235L584.776 454.956ZM582.029 463.192L574.583 469.475L576.061 481.197L584.987 486.635L592.434 480.352L590.955 468.631L582.029 463.192ZM615.672 457.701L623.119 451.418L621.64 439.697L612.715 434.259L605.268 440.542L606.747 452.263L615.672 457.701ZM632.837 373.488L641.762 378.926L649.209 372.643L647.73 360.922L638.805 355.484L631.358 361.767L632.837 373.488ZM612.979 465.938L604.053 460.5L596.606 466.783L598.085 478.504L607.011 483.942L614.457 477.659L612.979 465.938ZM624.175 399.729L633.101 405.167L640.548 398.884L639.069 387.163L630.143 381.725L622.697 388.008L624.175 399.729ZM615.461 425.97L624.387 431.408L631.833 425.125L630.355 413.404L621.429 407.966L613.982 414.248L615.461 425.97ZM637.432 455.537L644.879 449.254L643.4 437.533L634.474 432.094L627.027 438.377L628.506 450.098L637.432 455.537ZM660.776 384.998L651.85 379.56L644.403 385.843L645.882 397.564L654.808 403.002L662.254 396.719L660.776 384.998ZM652.114 411.239L643.189 405.801L635.742 412.084L637.22 423.805L646.146 429.243L653.593 422.96L652.114 411.239ZM628.717 481.83L636.164 475.547L634.685 463.826L625.76 458.388L618.313 464.671L619.792 476.392L628.717 481.83ZM617.098 484.576L609.651 490.859L611.13 502.58L620.056 508.018L627.503 501.735L626.024 490.014L617.098 484.576ZM665.687 434.945L656.762 429.507L649.315 435.79L650.794 447.511L659.719 452.95L667.166 446.667L665.687 434.945ZM674.402 408.705L665.476 403.266L658.029 409.549L659.508 421.271L668.434 426.709L675.881 420.426L674.402 408.705ZM683.063 382.464L674.138 377.026L666.691 383.309L668.17 395.03L677.095 400.468L684.542 394.185L683.063 382.464ZM651.005 479.243L658.452 472.96L656.973 461.239L648.047 455.801L640.601 462.084L642.079 473.805L651.005 479.243ZM648.311 487.48L639.386 482.041L631.939 488.324L633.418 500.046L642.343 505.484L649.79 499.201L648.311 487.48ZM678.468 427.342L671.022 433.625L672.5 445.347L681.426 450.785L688.873 444.502L687.394 432.781L678.468 427.342ZM669.807 453.636L662.36 459.919L663.839 471.64L672.765 477.078L680.211 470.795L678.732 459.074L669.807 453.636ZM687.183 401.102L679.736 407.385L681.215 419.106L690.14 424.544L697.587 418.261L696.108 406.54L687.183 401.102ZM661.093 479.877L653.646 486.16L655.124 497.881L664.05 503.319L671.497 497.036L670.018 485.315L661.093 479.877ZM652.378 506.17L644.931 512.453L646.41 524.174L655.336 529.613L662.783 523.33L661.304 511.608L652.378 506.17Z" fill="url(#paint24_radial_4058_1848)" fill-opacity="0.12"/>
<defs>
<linearGradient id="paint0_linear_4058_1848" x1="45.7472" y1="546.433" x2="709.253" y2="546.433" gradientUnits="userSpaceOnUse">
<stop offset="0.0555556" stop-color="#838FC7"/>
<stop offset="0.2603" stop-color="#8590C8"/>
<stop offset="0.3611" stop-color="#8D94CB"/>
<stop offset="0.439" stop-color="#9A9ACF"/>
<stop offset="0.4949" stop-color="#A9A1D5"/>
<stop offset="0.5067" stop-color="#ADA5D7"/>
<stop offset="0.5196" stop-color="#B9B3DD"/>
<stop offset="0.5329" stop-color="#CDC8E7"/>
<stop offset="0.5466" stop-color="#E9E7F4"/>
<stop offset="0.5556" stop-color="white"/>
<stop offset="0.5678" stop-color="#E3E0F3"/>
<stop offset="0.5801" stop-color="#CDC8EA"/>
<stop offset="0.5915" stop-color="#C0B9E5"/>
<stop offset="0.601" stop-color="#BBB4E3"/>
<stop offset="0.6079" stop-color="#B6B0E1"/>
<stop offset="0.6655" stop-color="#9591D4"/>
<stop offset="0.7204" stop-color="#7D7BCB"/>
<stop offset="0.771" stop-color="#6E6EC5"/>
<stop offset="0.8131" stop-color="#6969C3"/>
<stop offset="1" stop-color="#868DCC"/>
</linearGradient>
<linearGradient id="paint1_linear_4058_1848" x1="31.6317" y1="529.06" x2="669.957" y2="529.06" gradientUnits="userSpaceOnUse">
<stop stop-color="#271273"/>
<stop offset="1" stop-color="#364F87"/>
</linearGradient>
<linearGradient id="paint2_linear_4058_1848" x1="45.7473" y1="608.639" x2="709.252" y2="608.639" gradientUnits="userSpaceOnUse">
<stop offset="0.0555556" stop-color="#838FC7"/>
<stop offset="0.2603" stop-color="#8590C8"/>
<stop offset="0.3611" stop-color="#8D94CB"/>
<stop offset="0.439" stop-color="#9A9ACF"/>
<stop offset="0.4949" stop-color="#A9A1D5"/>
<stop offset="0.5067" stop-color="#ADA5D7"/>
<stop offset="0.5196" stop-color="#B9B3DD"/>
<stop offset="0.5329" stop-color="#CDC8E7"/>
<stop offset="0.5466" stop-color="#E9E7F4"/>
<stop offset="0.5556" stop-color="white"/>
<stop offset="0.5678" stop-color="#E3E0F3"/>
<stop offset="0.5801" stop-color="#CDC8EA"/>
<stop offset="0.5915" stop-color="#C0B9E5"/>
<stop offset="0.601" stop-color="#BBB4E3"/>
<stop offset="0.6079" stop-color="#B6B0E1"/>
<stop offset="0.6655" stop-color="#9591D4"/>
<stop offset="0.7204" stop-color="#7D7BCB"/>
<stop offset="0.771" stop-color="#6E6EC5"/>
<stop offset="0.8131" stop-color="#6969C3"/>
<stop offset="1" stop-color="#868DCC"/>
</linearGradient>
<linearGradient id="paint3_linear_4058_1848" x1="45.7473" y1="643.528" x2="709.252" y2="643.528" gradientUnits="userSpaceOnUse">
<stop offset="0.0555556" stop-color="#838FC7"/>
<stop offset="0.2603" stop-color="#8590C8"/>
<stop offset="0.3611" stop-color="#8D94CB"/>
<stop offset="0.439" stop-color="#9A9ACF"/>
<stop offset="0.4949" stop-color="#A9A1D5"/>
<stop offset="0.5067" stop-color="#ADA5D7"/>
<stop offset="0.5196" stop-color="#B9B3DD"/>
<stop offset="0.5329" stop-color="#CDC8E7"/>
<stop offset="0.5466" stop-color="#E9E7F4"/>
<stop offset="0.5556" stop-color="white"/>
<stop offset="0.5649" stop-color="#ECEAFA"/>
<stop offset="0.5783" stop-color="#D7D2F5"/>
<stop offset="0.5907" stop-color="#CAC3F1"/>
<stop offset="0.601" stop-color="#C5BEF0"/>
<stop offset="0.6212" stop-color="#B6B1E9"/>
<stop offset="0.675" stop-color="#9592D8"/>
<stop offset="0.7264" stop-color="#7D7BCD"/>
<stop offset="0.7737" stop-color="#6E6EC5"/>
<stop offset="0.8131" stop-color="#6969C3"/>
<stop offset="1" stop-color="#868DCC"/>
</linearGradient>
<linearGradient id="paint4_linear_4058_1848" x1="38.7696" y1="529.063" x2="662.816" y2="529.063" gradientUnits="userSpaceOnUse">
<stop stop-color="#2C1482"/>
<stop offset="1" stop-color="#4362A8"/>
</linearGradient>
<linearGradient id="paint5_linear_4058_1848" x1="458.067" y1="299.455" x2="-3912.71" y2="1721.31" gradientUnits="userSpaceOnUse">
<stop offset="0.0555556" stop-color="#838FC7"/>
<stop offset="0.2603" stop-color="#8590C8"/>
<stop offset="0.3611" stop-color="#8D94CB"/>
<stop offset="0.439" stop-color="#9A9ACF"/>
<stop offset="0.4949" stop-color="#A9A1D5"/>
<stop offset="0.5067" stop-color="#ADA5D7"/>
<stop offset="0.5196" stop-color="#B9B3DD"/>
<stop offset="0.5329" stop-color="#CDC8E7"/>
<stop offset="0.5466" stop-color="#E9E7F4"/>
<stop offset="0.5556" stop-color="white"/>
<stop offset="0.5678" stop-color="#E3E0F3"/>
<stop offset="0.5801" stop-color="#CDC8EA"/>
<stop offset="0.5915" stop-color="#C0B9E5"/>
<stop offset="0.601" stop-color="#BBB4E3"/>
<stop offset="0.6079" stop-color="#B6B0E1"/>
<stop offset="0.6655" stop-color="#9591D4"/>
<stop offset="0.7204" stop-color="#7D7BCB"/>
<stop offset="0.771" stop-color="#6E6EC5"/>
<stop offset="0.8131" stop-color="#6969C3"/>
<stop offset="1" stop-color="#868DCC"/>
</linearGradient>
<linearGradient id="paint6_linear_4058_1848" x1="453.144" y1="299.456" x2="-3917.65" y2="1721.31" gradientUnits="userSpaceOnUse">
<stop stop-color="#271273"/>
<stop offset="1" stop-color="#364F87"/>
</linearGradient>
<linearGradient id="paint7_linear_4058_1848" x1="761.761" y1="220.716" x2="255.626" y2="369.625" gradientUnits="userSpaceOnUse">
<stop offset="0.101" stop-color="#1940A8"/>
<stop offset="0.9697" stop-color="#4996FC"/>
</linearGradient>
<linearGradient id="paint8_linear_4058_1848" x1="716.317" y1="164.136" x2="312.305" y2="433.95" gradientUnits="userSpaceOnUse">
<stop stop-color="#1A3EA7"/>
<stop offset="0.101" stop-color="#1B3FA7"/>
<stop offset="0.6465" stop-color="#3974DB"/>
<stop offset="0.9697" stop-color="#499CF9"/>
<stop offset="1" stop-color="#489DFA"/>
</linearGradient>
<linearGradient id="paint9_linear_4058_1848" x1="647.525" y1="142.523" x2="393.823" y2="456.667" gradientUnits="userSpaceOnUse">
<stop stop-color="#1C3BA5"/>
<stop offset="0.101" stop-color="#1D3DA7"/>
<stop offset="0.6465" stop-color="#3A73DA"/>
<stop offset="0.9697" stop-color="#48A3F7"/>
<stop offset="1" stop-color="#48A5F7"/>
</linearGradient>
<linearGradient id="paint10_linear_4058_1848" x1="602.357" y1="103.964" x2="446.571" y2="497.676" gradientUnits="userSpaceOnUse">
<stop stop-color="#1D39A4"/>
<stop offset="0.101" stop-color="#1F3CA6"/>
<stop offset="0.6465" stop-color="#3C71D8"/>
<stop offset="0.9697" stop-color="#48A9F4"/>
<stop offset="1" stop-color="#47ACF5"/>
</linearGradient>
<linearGradient id="paint11_linear_4058_1848" x1="548.403" y1="28.2907" x2="507.481" y2="578.463" gradientUnits="userSpaceOnUse">
<stop stop-color="#1F37A3"/>
<stop offset="0.101" stop-color="#213AA5"/>
<stop offset="0.6465" stop-color="#3E6FD7"/>
<stop offset="0.9697" stop-color="#47B0F1"/>
<stop offset="1" stop-color="#47B4F2"/>
</linearGradient>
<linearGradient id="paint12_linear_4058_1848" x1="460.285" y1="-5.80824" x2="603.783" y2="611.827" gradientUnits="userSpaceOnUse">
<stop stop-color="#2034A1"/>
<stop offset="0.101" stop-color="#2339A5"/>
<stop offset="0.6465" stop-color="#3F6ED5"/>
<stop offset="0.9697" stop-color="#47B6EF"/>
<stop offset="1" stop-color="#46BBF0"/>
</linearGradient>
<linearGradient id="paint13_linear_4058_1848" x1="367.17" y1="14.3656" x2="702.816" y2="586.122" gradientUnits="userSpaceOnUse">
<stop stop-color="#2232A0"/>
<stop offset="0.101" stop-color="#2437A4"/>
<stop offset="0.6465" stop-color="#416CD4"/>
<stop offset="0.9697" stop-color="#46BDEC"/>
<stop offset="1" stop-color="#46C3ED"/>
</linearGradient>
<linearGradient id="paint14_linear_4058_1848" x1="300.603" y1="82.7439" x2="771.151" y2="510.121" gradientUnits="userSpaceOnUse">
<stop stop-color="#232F9E"/>
<stop offset="0.101" stop-color="#2636A4"/>
<stop offset="0.6465" stop-color="#426BD2"/>
<stop offset="0.9697" stop-color="#46C3EA"/>
<stop offset="1" stop-color="#45CAEB"/>
</linearGradient>
<linearGradient id="paint15_linear_4058_1848" x1="283.387" y1="176.332" x2="786.198" y2="409.799" gradientUnits="userSpaceOnUse">
<stop stop-color="#252D9D"/>
<stop offset="0.101" stop-color="#2834A3"/>
<stop offset="0.6465" stop-color="#4469D1"/>
<stop offset="0.9697" stop-color="#45CAE7"/>
<stop offset="1" stop-color="#45D2E8"/>
</linearGradient>
<linearGradient id="paint16_linear_4058_1848" x1="275.29" y1="256.942" x2="791.434" y2="325.474" gradientUnits="userSpaceOnUse">
<stop stop-color="#262B9C"/>
<stop offset="0.101" stop-color="#2A33A2"/>
<stop offset="0.6465" stop-color="#4667CF"/>
<stop offset="0.9697" stop-color="#45D0E4"/>
<stop offset="1" stop-color="#44D9E6"/>
</linearGradient>
<linearGradient id="paint17_linear_4058_1848" x1="265.573" y1="336.369" x2="798.111" y2="244.568" gradientUnits="userSpaceOnUse">
<stop stop-color="#28289A"/>
<stop offset="0.101" stop-color="#2C31A2"/>
<stop offset="0.6465" stop-color="#4766CE"/>
<stop offset="0.9697" stop-color="#44D7E2"/>
<stop offset="1" stop-color="#44E1E3"/>
</linearGradient>
<linearGradient id="paint18_linear_4058_1848" x1="300.929" y1="408.244" x2="759.395" y2="173.396" gradientUnits="userSpaceOnUse">
<stop stop-color="#292699"/>
<stop offset="0.6465" stop-color="#4964CC"/>
<stop offset="1" stop-color="#43E8E1"/>
</linearGradient>
<linearGradient id="paint19_linear_4058_1848" x1="348.422" y1="603.858" x2="357.194" y2="392.088" gradientUnits="userSpaceOnUse">
<stop stop-color="#363885"/>
<stop offset="1" stop-color="#10054D"/>
</linearGradient>
<linearGradient id="paint20_linear_4058_1848" x1="302.738" y1="382.427" x2="465.656" y2="638.179" gradientUnits="userSpaceOnUse">
<stop offset="0.0555556" stop-color="#7984B8"/>
<stop offset="0.2475" stop-color="#7B86BA"/>
<stop offset="0.3421" stop-color="#838CC0"/>
<stop offset="0.4154" stop-color="#9097CB"/>
<stop offset="0.4778" stop-color="#A3A6DA"/>
<stop offset="0.5326" stop-color="#BBB9ED"/>
<stop offset="0.5606" stop-color="#CAC6FA"/>
<stop offset="0.6045" stop-color="#B6B5EF"/>
<stop offset="0.6928" stop-color="#9599DC"/>
<stop offset="0.777" stop-color="#7D85CE"/>
<stop offset="0.8545" stop-color="#6E78C6"/>
<stop offset="0.9192" stop-color="#6974C3"/>
</linearGradient>
<linearGradient id="paint21_linear_4058_1848" x1="204.45" y1="413.581" x2="855.689" y2="413.581" gradientUnits="userSpaceOnUse">
<stop stop-color="#2C1482"/>
<stop offset="1" stop-color="#4362A8"/>
</linearGradient>
<linearGradient id="paint22_linear_4058_1848" x1="576.309" y1="282.813" x2="567.85" y2="487.022" gradientUnits="userSpaceOnUse">
<stop stop-color="#363885"/>
<stop offset="1" stop-color="#10054D"/>
</linearGradient>
<linearGradient id="paint23_linear_4058_1848" x1="350.287" y1="373.85" x2="734.086" y2="373.85" gradientUnits="userSpaceOnUse">
<stop offset="0.0555556" stop-color="#7984B8"/>
<stop offset="0.2475" stop-color="#7B86BA"/>
<stop offset="0.3421" stop-color="#838CC0"/>
<stop offset="0.4154" stop-color="#9097CB"/>
<stop offset="0.4778" stop-color="#A3A6DA"/>
<stop offset="0.5326" stop-color="#BBB9ED"/>
<stop offset="0.5606" stop-color="#CAC6FA"/>
<stop offset="0.6045" stop-color="#B6B5EF"/>
<stop offset="0.6928" stop-color="#9599DC"/>
<stop offset="0.777" stop-color="#7D85CE"/>
<stop offset="0.8545" stop-color="#6E78C6"/>
<stop offset="0.9192" stop-color="#6974C3"/>
</linearGradient>
<radialGradient id="paint24_radial_4058_1848" cx="0" cy="0" r="1" gradientUnits="userSpaceOnUse" gradientTransform="translate(528.074 290.804) scale(226.349 226.28)">
<stop stop-color="#364F87"/>
<stop offset="0.0407687" stop-color="#324A7E"/>
<stop offset="0.2619" stop-color="#202F51"/>
<stop offset="0.4746" stop-color="#121B2E"/>
<stop offset="0.6738" stop-color="#080C15"/>
<stop offset="0.8545" stop-color="#020305"/>
<stop offset="1"/>
</radialGradient>
</defs>
</svg>
